<?xml version="1.0" encoding="UTF-8"?>
<svg version="1.1" xmlns="http://www.w3.org/2000/svg" width="600" height="600">
<path d="M0 0 C9.93800062 11.33804228 11.93903222 27.46305896 11 42 C9.68252818 52.28945493 5.50570104 60.5646267 -2.65234375 67.13671875 C-15.08670486 75.45535865 -28.38023407 77.54256799 -43 75 C-40.39739704 90.87587805 -30.53851288 102.10806639 -18.00024414 111.51611328 C-11.17162229 116.15190334 -5.14935829 116.4524574 3 115 C5.67591096 114.24357419 7.56072898 113.38594944 10 112 C12.93439897 111.02186701 14.70124587 110.90742414 17.74609375 110.97265625 C18.66583984 110.98490234 19.58558594 110.99714844 20.53320312 111.00976562 C22.46557107 111.04485233 24.39787127 111.08389922 26.33007812 111.12695312 C27.25111328 111.13791016 28.17214844 111.14886719 29.12109375 111.16015625 C29.9608374 111.17699463 30.80058105 111.19383301 31.66577148 111.21118164 C34.22491626 110.97965144 35.76889795 110.22853327 38 109 C46.03425829 107.89725867 54.13802631 109.82288203 61.46875 113.10546875 C64.41307197 114.14597759 66.57921997 114.09934636 69.6875 113.9375 C82.69243971 113.76218831 91.49294697 119.71179993 101 128 C101.78375 127.525625 102.5675 127.05125 103.375 126.5625 C106.65314157 125.14950794 108.14177755 124.83086944 111.546875 124.68359375 C117.55822778 124.15563634 122.44308167 122.0136241 127.875 119.5 C129.70462244 118.67462563 131.53531199 117.85161164 133.3671875 117.03125 C134.16237793 116.66580078 134.95756836 116.30035156 135.77685547 115.92382812 C139.3412908 114.44262636 142.40174124 113.87336235 146.25 113.9375 C148.10625 113.9684375 148.10625 113.9684375 150 114 C150.7421875 116.05859375 150.7421875 116.05859375 151 119 C149.80337488 121.52331819 148.60814102 123.72370069 147.125 126.0625 C143.10699626 132.56947192 141.87070077 136.37727728 142 144.0625 C142.11088911 150.66733267 142.11088911 150.66733267 141 154 C141.71800781 153.68546875 142.43601562 153.3709375 143.17578125 153.046875 C157.14753019 147.27026149 173.75823885 142.95212892 189 144 C190.9375 145.49609375 190.9375 145.49609375 192 147 C189.51648319 149.48351681 187.37700166 150.03274496 184.0625 151.1875 C170.62468837 156.27287646 156.24644418 165.5817125 150 179 C150.8128183 181.21036522 150.8128183 181.21036522 152 183 C152.50789063 182.61328125 153.01578125 182.2265625 153.5390625 181.828125 C154.57160156 181.04695313 154.57160156 181.04695313 155.625 180.25 C156.29789062 179.73953125 156.97078125 179.2290625 157.6640625 178.703125 C158.43492187 178.14109375 159.20578125 177.5790625 160 177 C160.9075 176.33226562 161.815 175.66453125 162.75 174.9765625 C166.52656093 172.67975982 170.17345631 171.41694402 174.375 170.125 C175.9682268 169.61440318 177.56066006 169.10132452 179.15234375 168.5859375 C180.35673096 168.19680176 180.35673096 168.19680176 181.58544922 167.79980469 C185.40175425 166.53567776 189.17225087 165.15793641 192.9375 163.75 C193.60507324 163.5039502 194.27264648 163.25790039 194.96044922 163.00439453 C197.91963259 161.89037616 200.35296035 160.7646931 203 159 C203.99 159 204.98 159 206 159 C209.97464865 166.9492973 206.22411039 180.86496558 204 189 C208.70408768 190.84816438 212.55585111 191.21403503 217.59375 191.125 C218.30349976 191.11742676 219.01324951 191.10985352 219.74450684 191.10205078 C221.99659483 191.07778286 224.24814997 191.04054778 226.5 191 C229.46873797 190.94654362 232.43720842 190.90668056 235.40625 190.875 C236.71916016 190.85179687 238.03207031 190.82859375 239.38476562 190.8046875 C242.99049939 190.99948673 245.69686171 191.55972169 249 193 C249.875 195.125 249.875 195.125 250 197 C248.62610383 198.23040035 247.25082011 199.45925136 245.875 200.6875 C245.05386719 201.42613281 244.23273438 202.16476562 243.38671875 202.92578125 C241.53079323 204.53870506 239.68336113 205.95378269 237.6875 207.375 C233.9117552 211.06293678 232.6985193 215.08211149 231 220 C230.32497325 221.81718227 229.63780882 223.62991043 228.9375 225.4375 C228.63714844 226.24058594 228.33679688 227.04367187 228.02734375 227.87109375 C226.91856704 230.16874891 226.01818341 231.443924 224 233 C221.73828125 233.73046875 221.73828125 233.73046875 219.3125 234.1875 C218.50425781 234.34605469 217.69601562 234.50460937 216.86328125 234.66796875 C216.24839844 234.77753906 215.63351562 234.88710938 215 235 C214.97421875 235.6290625 214.9484375 236.258125 214.921875 236.90625 C214.42671178 244.37871316 212.93168297 249.99116748 207.625 255.4375 C204.69698116 257.18036836 202.37284037 257.68624741 199 258 C199.33 259.98 199.66 261.96 200 264 C200.80179687 263.82082031 201.60359375 263.64164062 202.4296875 263.45703125 C212.38005453 261.59556803 224.66397849 261.33198925 234 266 C240.30539221 266.80533311 243.9005847 263.73985115 248.70117188 260.19921875 C252.91965934 257.25608796 255.69885745 256.37083972 261 257 C263.265625 257.83203125 263.265625 257.83203125 265.25 258.8125 C268.35689637 259.9702836 269.60919456 260.12718842 272.80859375 259.0859375 C274.67515647 258.17924896 276.51709469 257.21923988 278.32421875 256.19921875 C281.46998616 254.78936387 283.58602875 254.66886344 287 255 C290.0447267 256.73984383 292.59305537 258.63835133 295.2109375 260.96484375 C298.46732028 263.34099981 301.78429543 264.5488819 305.5625 265.8125 C324.26166593 272.43283524 324.26166593 272.43283524 329 279 C328.96484375 281.08984375 328.96484375 281.08984375 328 283 C326.06640625 283.94140625 326.06640625 283.94140625 323.5625 284.5625 C322.66015625 284.80484375 321.7578125 285.0471875 320.828125 285.296875 C319.00644123 285.7497798 317.18359877 286.19806184 315.359375 286.640625 C309.37404748 288.21957643 305.20685815 290.38146154 301 295 C300.67 295.66 300.34 296.32 300 297 C299.34 297 298.68 297 298 297 C298 297.66 298 298.32 298 299 C292.97085549 302.77185838 289.78670572 304.26515065 283.625 303.5625 C281.24071562 303.43383875 281.24071562 303.43383875 279 304 C277.15516592 305.80520757 275.91638859 307.72024305 274.51953125 309.88671875 C272.03020688 313.34873542 268.94634659 315.43759884 265 317 C262.18294907 317.37015857 259.85615198 317.25501357 257 317 C260.39819719 320.12401502 262.89490248 320.37396261 267.4375 320.5 C272.23208566 320.63333726 275.08323611 321.16586275 279 324 C281.56915921 326.72486582 283.19292611 329.36364564 284.6875 332.75 C286.36083718 336.25354973 288.38812764 338.56726816 291.1875 341.25 C298.1810467 347.95359866 305.40890688 354.92678816 306 365 C305.67 365.33 305.34 365.66 305 366 C303.39226094 365.9355733 301.78716777 365.79831686 300.1875 365.625 C299.31480469 365.53476562 298.44210937 365.44453125 297.54296875 365.3515625 C295 365 295 365 293.01171875 364.484375 C284.10017711 362.33868342 276.51093967 364.50739234 268.32421875 368.1015625 C264.17773158 369.22223471 261.95954566 368.53426438 258 367 C256.700625 366.13375 256.700625 366.13375 255.375 365.25 C254.59125 364.8375 253.8075 364.425 253 364 C250.59293612 364.77553489 250.59293612 364.77553489 248 366 C235.77854077 371.10128755 235.77854077 371.10128755 230 369 C227.39602692 366.97190559 224.9363303 364.87390423 222.52734375 362.6171875 C220.06529087 360.70617273 220.06529087 360.70617273 216.90625 361.09765625 C214.14753003 361.9541943 212.69940435 362.69204258 210.5625 364.5625 C207.84685031 366.63071003 206.94819061 367.00714612 203.375 367.5 C199.834848 366.97553304 197.97170565 365.89858972 195 364 C191.54658028 365.15113991 191.15357642 365.8931744 189.1875 368.8125 C184.83958405 374.82855203 179.44502429 377.98976721 172.25 379.625 C166.32863369 380.30823457 161.28500587 380.49467112 155.625 378.5 C152.39262977 377.68770592 151.35758908 377.79666503 148.41015625 379.47265625 C146.54643394 380.9032035 144.69670933 382.35212184 142.859375 383.81640625 C135.37984534 389.52823286 128.00259262 391.43358364 118.75 391.5625 C117.63322876 391.58473633 117.63322876 391.58473633 116.49389648 391.60742188 C109.93257956 391.48493035 104.91953157 389.35767927 99.828125 385.24609375 C95.24539225 379.99410053 92.9704879 374.65804607 91 368 C90.59910156 368.49628906 90.19820313 368.99257813 89.78515625 369.50390625 C89.21667969 370.18324219 88.64820313 370.86257813 88.0625 371.5625 C87.51722656 372.22378906 86.97195313 372.88507813 86.41015625 373.56640625 C79.64537274 380.39697371 72.89189771 384.40049259 63.75 387.3125 C62.70803467 387.65079834 61.66606934 387.98909668 60.5925293 388.33764648 C50.47453057 391.44857645 40.55854416 392.77714692 30 393 C28.28876953 393.04447266 28.28876953 393.04447266 26.54296875 393.08984375 C9.25241496 392.57933959 -8.91718408 386.13299692 -21.1875 373.9375 C-21.90292969 373.14214844 -22.61835938 372.34679687 -23.35546875 371.52734375 C-26.32095572 369.81463267 -26.86914524 369.84055471 -30.08984375 370.46484375 C-36.70903347 372.31553886 -43.00771885 375.15744164 -49.296875 377.8984375 C-55.95024067 380.64540349 -61.78792516 381.93969621 -69 381 C-72.625 379.4375 -72.625 379.4375 -75 377 C-75.875 373.25 -75.875 373.25 -76 370 C-76.78201782 370.31471504 -76.78201782 370.31471504 -77.57983398 370.63578796 C-83.81830003 372.95296056 -89.44314349 373.49607668 -96.0625 373.58203125 C-97.09383057 373.6047258 -98.12516113 373.62742035 -99.18774414 373.65080261 C-101.35582849 373.69515072 -103.52406428 373.73258555 -105.69238281 373.76342773 C-108.99089217 373.81236488 -112.28802191 373.8879593 -115.5859375 373.96679688 C-117.70309554 374.00679899 -119.82028334 374.04526196 -121.9375 374.08203125 C-122.91275635 374.10481644 -123.8880127 374.12760162 -124.89282227 374.15107727 C-133.52310956 374.24827906 -141.08647121 373.59666616 -148 368 C-150.28332877 365.71667123 -150.91424821 364.41923098 -151.5625 361.25 C-150.61032564 355.74854815 -146.8721936 351.8721936 -143 348 C-143 347.01 -143 346.02 -143 345 C-144.08539063 344.50371094 -145.17078125 344.00742187 -146.2890625 343.49609375 C-162.47374584 335.90293051 -162.47374584 335.90293051 -165 330 C-166.29370998 324.14649256 -164.88402271 319.81373345 -161.77734375 314.82421875 C-160.84772115 313.03326464 -160.84772115 313.03326464 -161.15234375 311.07421875 C-162.62145957 307.47928557 -165.20399803 304.65582857 -167.6015625 301.6328125 C-169.38225648 298.28033277 -169.04120848 296.58863117 -168 293 C-167 292 -166 291 -165 290 C-163.80832448 285.34163205 -164.23074783 282.0955682 -165.5 277.5 C-166.76783269 272.90957129 -167.30314083 269.63409594 -166 265 C-164.51171875 262.83984375 -164.51171875 262.83984375 -162.6875 260.9375 C-161.74777344 259.91849609 -161.74777344 259.91849609 -160.7890625 258.87890625 C-160.19867188 258.25886719 -159.60828125 257.63882812 -159 257 C-155.79313511 253.65119823 -155.79313511 253.65119823 -154.7265625 249.328125 C-155.05419978 245.3403113 -156.30652305 242.03376303 -157.8125 238.375 C-165.08112854 219.81236794 -166.38550197 201.60673275 -166.3125 181.875 C-166.31067719 180.85599609 -166.30885437 179.83699219 -166.30697632 178.78710938 C-166.25748532 162.33095014 -165.45445755 146.29280897 -163 130 C-162.74259033 128.17758789 -162.74259033 128.17758789 -162.47998047 126.31835938 C-156.83212155 86.68744944 -145.17418967 53.09932404 -117.54296875 23.75390625 C-115.79772039 21.86389074 -114.11470319 19.91506394 -112.48828125 17.921875 C-99.57430118 2.75757815 -77.83287552 -10.65641724 -58 -14 C-57.20851563 -14.14050781 -56.41703125 -14.28101562 -55.6015625 -14.42578125 C-37.18205837 -16.96534743 -13.87578768 -13.08372369 0 0 Z M-37 -8 C-37.33 -7.67 -37.66 -7.34 -38 -7 C-37.77473579 -3.78653703 -37.41350993 -0.59609475 -37.05859375 2.60546875 C-36.99654821 6.19997366 -37.67599252 8.68242993 -39 12 C-41.30948559 9.69051441 -41.57160823 8.36905042 -42.375 5.25 C-43.65440674 0.7849997 -45.05248095 -2.40771116 -48 -6 C-54.38748095 -8.12916032 -59.9118317 -6.72991983 -66.0625 -4.6875 C-67.0844043 -4.36749023 -67.0844043 -4.36749023 -68.12695312 -4.04101562 C-72.29381176 -2.7000957 -76.12340922 -1.06227372 -80 1 C-80 1.33 -80 1.66 -80 2 C-79.01 2.15855469 -78.02 2.31710938 -77 2.48046875 C-64.6559768 4.60292804 -57.7801489 8.35282877 -49.5 17.875 C-47.24495555 20.2708354 -47.24495555 20.2708354 -44.625 19.9375 C-43.325625 19.4734375 -43.325625 19.4734375 -42 19 C-35.60467039 16.82800127 -30.80039144 16.42422794 -24.4375 19.0625 C-19.72801093 20.87384195 -14.95291553 19.9975529 -10.0625 19.375 C-5.22108956 18.83377035 -1.62704501 19.54333768 3 21 C2.63608926 13.90374054 -1.27169013 8.61974391 -6.2578125 3.83203125 C-10.17760076 0.27660785 -10.17760076 0.27660785 -15.0703125 -1.05859375 C-18.07855251 0.59167557 -18.83193421 3.00076705 -20.25 6.0625 C-20.77078125 7.16722656 -21.2915625 8.27195312 -21.828125 9.41015625 C-22.21484375 10.26480469 -22.6015625 11.11945313 -23 12 C-23.66 12 -24.32 12 -25 12 C-24.89300781 11.19175781 -24.78601563 10.38351563 -24.67578125 9.55078125 C-24.55589844 8.48214844 -24.43601563 7.41351563 -24.3125 6.3125 C-24.18488281 5.25675781 -24.05726563 4.20101562 -23.92578125 3.11328125 C-24.01292969 -0.54236648 -24.76114854 -2.14231993 -27 -5 C-30.53033392 -6.82820864 -33.01080638 -8 -37 -8 Z M-100 15 C-101.03125 15.7425 -102.0625 16.485 -103.125 17.25 C-103.74375 17.8275 -104.3625 18.405 -105 19 C-105 19.66 -105 20.32 -105 21 C-104.39115967 20.90388428 -103.78231934 20.80776855 -103.1550293 20.70874023 C-100.33443795 20.2714165 -97.51117849 19.85440675 -94.6875 19.4375 C-93.73037109 19.28603516 -92.77324219 19.13457031 -91.78710938 18.97851562 C-84.99633762 17.99533992 -78.79692197 18.08271076 -72 19 C-72 19.66 -72 20.32 -72 21 C-72.61407715 21.07516846 -73.2281543 21.15033691 -73.86083984 21.2277832 C-76.7000739 21.58048805 -79.53746011 21.94642457 -82.375 22.3125 C-83.34050781 22.43044922 -84.30601562 22.54839844 -85.30078125 22.66992188 C-94.35068394 23.85430511 -102.50012242 25.93611057 -110.625 30.1875 C-111.64851563 30.71730469 -112.67203125 31.24710938 -113.7265625 31.79296875 C-114.47679687 32.19128906 -115.22703125 32.58960938 -116 33 C-116 33.33 -116 33.66 -116 34 C-114.60386935 33.85704109 -113.20810692 33.71048442 -111.8125 33.5625 C-111.03519531 33.48128906 -110.25789063 33.40007812 -109.45703125 33.31640625 C-107.0076531 33.03603632 -107.0076531 33.03603632 -104.65844727 32.49511719 C-91.59849252 30.06279207 -76.33788823 30.96721885 -64 36 C-63.29230469 36.56074219 -62.58460938 37.12148437 -61.85546875 37.69921875 C-60.08446401 39.20692311 -60.08446401 39.20692311 -57.8515625 38.9921875 C-55.79227424 38.13148528 -55.79227424 38.13148528 -55.0234375 35.8203125 C-54.80945313 34.93085938 -54.59546875 34.04140625 -54.375 33.125 C-53.54959972 29.79426712 -52.93952038 27.90928057 -51 25 C-51.18328563 22.28306011 -51.80654907 21.20514796 -53.6796875 19.21875 C-59.42599126 14.7198645 -65.0053571 12.04882453 -72 10 C-72.63035156 9.81050781 -73.26070312 9.62101562 -73.91015625 9.42578125 C-84.06336017 7.35718456 -91.85494567 8.71799213 -100 15 Z M-47.3125 29.4375 C-52.34124588 37.07374375 -51.87355649 45.94564808 -50.60546875 54.734375 C-48.97169735 60.84784219 -45.16301872 64.50247119 -40 68 C-32.9564932 70.3478356 -24.02694468 69.90201284 -17.12109375 67.15234375 C-7.49261384 61.92140163 -2.83545911 53.82148383 0.80859375 43.76953125 C2.17635751 39.04367163 2.8246977 33.87863338 2 29 C-0.24061675 26.52759532 -1.82929529 26.05690157 -5 25 C-6.89470816 24.9314505 -8.7916834 24.91519628 -10.6875 24.9375 C-11.68136719 24.94652344 -12.67523438 24.95554688 -13.69921875 24.96484375 C-14.45847656 24.97644531 -15.21773437 24.98804688 -16 25 C-17.2228992 27.77390511 -17.2228992 27.77390511 -16.5625 29.75 C-15.44557664 34.21769343 -15.60987693 37.93229476 -17.1875 42.25 C-19.25163101 45.38178498 -20.50210971 46.64854239 -24 48 C-27.47261317 47.88025472 -29.95439996 47.64085164 -32.9375 45.8125 C-34.51045744 43.12921967 -34.32378803 41.04360748 -34 38 C-32 36 -32 36 -29.5625 35.6875 C-26.55916158 36.05376078 -25.93454453 36.78909196 -24 39 C-23.34 39 -22.68 39 -22 39 C-20.54852097 36.09704195 -20.62760975 34.22738221 -21 31 C-23.46445743 27.44022815 -25.73248044 24.2192913 -30 23 C-37.53573397 22.25878027 -41.96492889 23.80087099 -47.3125 29.4375 Z M-110.1875 38.3125 C-110.96440186 38.43012695 -111.74130371 38.54775391 -112.54174805 38.66894531 C-118.13179664 39.61708933 -123.77097828 40.7052808 -127.85546875 44.91015625 C-131.24983141 50.39488888 -133.84178779 55.91891973 -136 62 C-132.39480899 63.20173034 -131.33953794 62.43207168 -128.06298828 60.80126953 C-127.42345215 60.47497559 -126.78391602 60.14868164 -126.125 59.8125 C-113.47474357 53.64546162 -101.87428023 50.97083078 -87.875 50.875 C-87.20557373 50.87016602 -86.53614746 50.86533203 -85.84643555 50.86035156 C-74.09907534 50.90092466 -74.09907534 50.90092466 -72 53 C-74.57567758 54.28783879 -77.02677741 54.31144387 -79.86279297 54.54321289 C-95.72092847 55.88184562 -110.63087725 59.23804375 -125.3125 65.4375 C-126.59229736 65.97612671 -126.59229736 65.97612671 -127.89794922 66.52563477 C-134.53931643 69.47669584 -141.02097632 72.68902195 -144.83984375 79.078125 C-145.20207031 80.12484375 -145.56429687 81.1715625 -145.9375 82.25 C-146.31777344 83.28640625 -146.69804687 84.3228125 -147.08984375 85.390625 C-148.22870875 89.90698235 -148.65237063 94.36416798 -149 99 C-147.83726562 98.43152344 -146.67453125 97.86304688 -145.4765625 97.27734375 C-101.08117831 75.77669193 -101.08117831 75.77669193 -79.2109375 75.95703125 C-78.2317334 75.96323486 -77.2525293 75.96943848 -76.24365234 75.97583008 C-75.50324707 75.98380615 -74.7628418 75.99178223 -74 76 C-75.0837793 76.2928186 -75.0837793 76.2928186 -76.18945312 76.59155273 C-116.8770674 86.58794191 -116.8770674 86.58794191 -152 108 C-153.1073278 109.93491085 -153.1073278 109.93491085 -153.625 112.0625 C-153.85058594 112.8359375 -154.07617188 113.609375 -154.30859375 114.40625 C-154.53675781 115.2621875 -154.76492187 116.118125 -155 117 C-155.27972656 118.0003125 -155.55945313 119.000625 -155.84765625 120.03125 C-156.58242438 122.68325031 -157.29868719 125.33899038 -158 128 C-154.17640581 126.66712738 -151.56138778 125.00653539 -148.5 122.375 C-122.73366311 101.32109051 -88.81939114 90.56978847 -56.85327148 83.47729492 C-54.92438323 83.04969507 -54.92438323 83.04969507 -53 82 C-53.06059066 80.58217855 -53.14954123 79.16555534 -53.25 77.75 C-53.29640625 76.96109375 -53.3428125 76.1721875 -53.390625 75.359375 C-54.24451197 72.05329981 -55.16880596 70.94151542 -58 69 C-61.05200209 68.42560635 -64.02848508 68.48098962 -67.125 68.5625 C-68.01517822 68.57716309 -68.90535645 68.59182617 -69.82250977 68.60693359 C-88.66814279 69.13195611 -107.46819553 73.86137516 -124.81005859 81.15942383 C-127.50276606 82.19297921 -130.13625998 82.69855368 -133 83 C-129.32973761 78.90083721 -125.72406968 76.560512 -120.625 74.4375 C-119.92383057 74.14012939 -119.22266113 73.84275879 -118.50024414 73.53637695 C-102.76905475 67.06069717 -86.40823941 64.92535204 -69.52050781 64.42895508 C-64.99439157 64.2616939 -61.26710905 63.69318887 -57 62 C-56.92263576 53.12244838 -56.92263576 53.12244838 -59.75 44.9375 C-75.42463016 35.59300894 -92.67142675 35.60313592 -110.1875 38.3125 Z M-151 133 C-151.98613281 133.73283203 -151.98613281 133.73283203 -152.9921875 134.48046875 C-158.16103008 139.09285699 -158.3003778 145.86871262 -158.765625 152.37890625 C-159.33669928 163.57072069 -159.15560258 174.79900835 -159 186 C-156.30319001 183.47196177 -154.38014809 181.23701506 -152.7734375 177.91015625 C-152.38663818 177.13212646 -151.99983887 176.35409668 -151.60131836 175.55249023 C-151.1966333 174.73079346 -150.79194824 173.90909668 -150.375 173.0625 C-146.030168 164.54041197 -141.20627019 157.28215652 -135 150 C-134.24847656 149.10925781 -133.49695313 148.21851563 -132.72265625 147.30078125 C-125.39883657 138.89576499 -117.23317614 131.77317952 -108.3125 125.125 C-107.69487793 124.66037354 -107.07725586 124.19574707 -106.44091797 123.71704102 C-102.45833488 120.80963832 -98.59950306 118.78311929 -94 117 C-99.63393888 123.71073265 -105.76874162 129.85145744 -112 136 C-112.84433594 136.84949219 -113.68867187 137.69898438 -114.55859375 138.57421875 C-116.0735364 140.07946577 -117.61154159 141.56231195 -119.18359375 143.0078125 C-133.83007754 156.7658614 -153.90452526 181.06445518 -157.3984375 201.30859375 C-157.2597735 213.90390709 -154.00106438 226.13897666 -150 238 C-149.34 238 -148.68 238 -148 238 C-146.55496355 236.30964734 -146.55496355 236.30964734 -145.125 234.1875 C-142.46371789 230.3627778 -140.01381346 227.65448937 -135.5 226.1875 C-132.47654689 225.96074102 -131.34796645 226.05685535 -129 228 C-127.19008557 233.166483 -126.61410976 237.99277151 -126.375 243.4375 C-126.31699219 244.53481445 -126.31699219 244.53481445 -126.2578125 245.65429688 C-126.16466016 247.43583532 -126.08129714 249.21788122 -126 251 C-125.34 250.67 -124.68 250.34 -124 250 C-123.38089363 248.23969103 -123.38089363 248.23969103 -122.9921875 246.08203125 C-122.81453857 245.25074707 -122.63688965 244.41946289 -122.45385742 243.56298828 C-122.26283447 242.65532715 -122.07181152 241.74766602 -121.875 240.8125 C-117.98398555 223.55178756 -112.04011134 207.23022774 -103 192 C-102.37867188 190.94941406 -101.75734375 189.89882813 -101.1171875 188.81640625 C-94.25107759 177.62553879 -94.25107759 177.62553879 -89 175 C-89.66 178.63 -90.32 182.26 -91 186 C-85.32095673 183.32660122 -85.32095673 183.32660122 -81.71875 178.4296875 C-81.07144259 176.51386636 -80.45035785 174.58899014 -79.85546875 172.65625 C-78.03082226 166.99068099 -74.8066196 163.36463372 -70 160 C-69.29875 159.71125 -68.5975 159.4225 -67.875 159.125 C-64.28804836 156.97282901 -63.26947765 152.80843295 -62 149 C-60.375 148.0625 -60.375 148.0625 -58 147 C-55.48420381 145.55586211 -55.48420381 145.55586211 -52.9765625 144.09765625 C-51 143 -51 143 -48.03515625 141.67578125 C-44.73024064 139.85105951 -43.12944916 138.07384439 -40.8125 135.125 C-36.79750244 130.45102653 -33.13536333 128.27428918 -27.46484375 126.015625 C-24.48243307 124.78673946 -22.24403686 123.32141744 -20 121 C-20 120.01 -20 119.02 -20 118 C-22.16655507 116.0577111 -22.16655507 116.0577111 -25 114.3125 C-25.928125 113.68988281 -26.85625 113.06726563 -27.8125 112.42578125 C-33.35142939 109.94819641 -37.87670506 110.41312813 -43.41015625 112.43359375 C-44.96882099 113.08295418 -46.51947019 113.75181513 -48.0625 114.4375 C-48.88959473 114.79730957 -49.71668945 115.15711914 -50.56884766 115.52783203 C-83.38740549 130.17773302 -106.71510805 156.39165382 -122.21484375 188.52734375 C-124 192 -124 192 -126 193 C-122.36392653 167.54748574 -99.45980171 139.45007312 -80 124 C-69.34688584 116.59341536 -57.51986386 110.68716088 -45.5625 105.6875 C-44.386875 105.130625 -43.21125 104.57375 -42 104 C-40.65543858 99.96631575 -41.78493561 98.636708 -43.625 94.875 C-44.13289063 93.79992187 -44.64078125 92.72484375 -45.1640625 91.6171875 C-46.74412873 88.87124404 -46.74412873 88.87124404 -49.265625 88.046875 C-83.11537145 87.46659363 -125.59095574 111.96196496 -151 133 Z M40 117 C40.32871094 117.43828125 40.65742188 117.8765625 40.99609375 118.328125 C41.47175781 118.96234375 41.94742188 119.5965625 42.4375 120.25 C42.9840625 120.97445312 43.530625 121.69890625 44.09375 122.4453125 C45.4643409 124.282129 46.81636466 126.13285386 48.15625 127.9921875 C56.05117334 139.19311173 56.05117334 139.19311173 68 145 C70.75065232 145.16857483 70.75065232 145.16857483 73 145 C71.29362552 140.5284238 69.28031387 136.23742453 67.1875 131.9375 C66.85685547 131.23044922 66.52621094 130.52339844 66.18554688 129.79492188 C63.03735319 123.35955474 59.02510999 119.91698441 52.26953125 117.52734375 C48.20462769 116.58283088 44.14390458 116.77072659 40 117 Z M11 119 C11 119.99 11 120.98 11 122 C13.4451348 124.17258627 13.4451348 124.17258627 16.5625 126.3125 C20.08078577 128.83993628 23.50887225 131.35984105 26.6875 134.3125 C33.2590657 140.02690495 40.46709179 141.64371991 49 142 C49 135.4210854 42.14634472 128.83978021 38 124 C30.27404688 116.7414533 20.862095 117.66171989 11 119 Z M70 121 C71.32510088 125.24793104 72.9399238 129.15017917 74.9375 133.125 C75.69353516 134.64480469 75.69353516 134.64480469 76.46484375 136.1953125 C77.89971059 138.97523232 77.89971059 138.97523232 79.6484375 141.1953125 C81.30586656 143.40841142 81.62368887 145.29055985 82 148 C86.77059253 147.40367593 91.02316779 145.67499924 95 143 C96.61315967 140.41894452 97.16390893 139.09572 96.71484375 136.09375 C95.06560222 131.26318465 91.10662869 127.36677758 86.88671875 124.62890625 C81.41526949 121.97578787 76.0324091 121.25187512 70 121 Z M-18 127 C-18.33 127.66 -18.66 128.32 -19 129 C-18.26136719 129.268125 -17.52273437 129.53625 -16.76171875 129.8125 C-11.01921141 132.03069851 -6.2309377 134.37360901 -1.375 138.1875 C3.53256035 141.91047681 7.74441093 144.09022484 14 144 C17.16430934 143.31722492 20.05006965 142.32533103 23 141 C23 140.01 23 139.02 23 138 C20.85571134 136.05134965 20.85571134 136.05134965 18.0625 134.1875 C17.06347656 133.48882812 16.06445312 132.79015625 15.03515625 132.0703125 C14.03355469 131.38710937 13.03195313 130.70390625 12 130 C11.13246094 129.39929688 10.26492187 128.79859375 9.37109375 128.1796875 C0.11554267 121.86700521 -8.11514503 120.9543521 -18 127 Z M126.5 127.8125 C121.42050961 130.50177861 116.88691084 132.47689794 111.1875 133.5625 C108.3632716 134.09887693 108.3632716 134.09887693 106 135 C103.73312241 138.12240972 103.73312241 138.12240972 103 142 C102.24073774 144.8149519 101.47476558 147.47346362 100 150 C96.625 151.875 96.625 151.875 93 153 C90.21433941 153.91257306 90.21433941 153.91257306 88 155 C86.96807352 158.09577944 86.79654711 160.56535835 86.625 163.8125 C85.87696195 172.44610583 85.87696195 172.44610583 83 176 C80.22124667 177.63183238 77.4258533 179.06783614 74.49609375 180.41015625 C71.46633911 182.33990607 70.90041655 183.56812663 70 187 C68.87607123 194.65839838 71.02335397 201.01019727 74 208 C74.66 208 75.32 208 76 208 C77.55172131 205.67241803 78.97962102 203.3566129 80.375 200.9375 C80.76171875 200.28072266 81.1484375 199.62394531 81.546875 198.94726562 C82.70769784 196.97036096 83.85485475 194.9860189 85 193 C85.36931641 192.36795654 85.73863281 191.73591309 86.11914062 191.0847168 C91.70305518 181.46583267 93.86244122 171.73372059 91.484375 160.58203125 C91.32453125 160.05996094 91.1646875 159.53789062 91 159 C92.890625 159.6484375 92.890625 159.6484375 95 161 C96.046875 163.6015625 96.046875 163.6015625 96.75 166.625 C96.99234375 167.62789062 97.2346875 168.63078125 97.484375 169.6640625 C97.65453125 170.43492187 97.8246875 171.20578125 98 172 C101.95064615 172.46376574 101.95064615 172.46376574 103.8515625 170.20703125 C104.43679688 169.41683594 105.02203125 168.62664062 105.625 167.8125 C106.21539062 167.03519531 106.80578125 166.25789063 107.4140625 165.45703125 C110.93570247 160.0010915 111.68838078 155.36502811 111 149 C110.18037927 145.59833707 109.15769746 142.30081597 108 139 C113.3444849 141.96915828 115.00171931 144.22718912 117 150 C119.49543585 146.25684623 121.03669774 142.2485499 122.70117188 138.09375 C125.17310495 132.12570699 125.17310495 132.12570699 128 130 C128.99 129.67 129.98 129.34 131 129 C128.87418586 134.96796182 128.87418586 134.96796182 128.05639648 137.23681641 C126.99646542 140.18070018 125.95983245 143.12298405 124.98828125 146.09765625 C121.8263733 155.58338011 116.60332735 161.9763272 109.1875 168.625 C107.67319006 170.07561063 107.67319006 170.07561063 108 173 C110.97 173.33 113.94 173.66 117 174 C117.33 174.99 117.66 175.98 118 177 C117.24976563 177.08636719 116.49953125 177.17273438 115.7265625 177.26171875 C107.22250732 178.42915202 100.18818256 180.62902379 93.4375 186.0625 C91.94422937 188.07516911 91.35252653 189.53231431 91 192 C93.56893838 193.28446919 95.76576337 193.32977144 98.625 193.5625 C100.12933594 193.68818359 100.12933594 193.68818359 101.6640625 193.81640625 C102.43492187 193.87699219 103.20578125 193.93757813 104 194 C104 194.99 104 195.98 104 197 C102.824375 197.0928125 102.824375 197.0928125 101.625 197.1875 C95.64422654 198.52801819 89.90275718 200.82542036 85.8125 205.5 C84.8191219 208.55654801 84.94097957 209.97422734 86 213 C86.98180225 214.67745108 87.97979974 216.3456212 89 218 C91.73385087 217.09574944 94.46145485 216.17725657 97.1875 215.25 C98.34088867 214.87101562 98.34088867 214.87101562 99.51757812 214.484375 C105.92978708 212.31555846 105.92978708 212.31555846 111 208 C111.29418455 204.29695192 111.12056414 200.96707225 110.8046875 197.28710938 C110.5834339 193.09435364 110.55350672 191.57294767 113.234375 188.1328125 C115.52904608 186.36319328 117.74116309 184.75364486 120.25 183.3125 C123.19420527 181.70771231 123.19420527 181.70771231 125 179 C125.0591112 175.39791136 125.02071092 171.81033274 124.9609375 168.20898438 C124.92645032 164.87234979 124.93666743 162.18999771 126 159 C127.8125 158 127.8125 158 130 157 C132.2836989 156.10334438 132.2836989 156.10334438 134 154 C134.41737817 150.94794687 134.17782904 147.9422584 134 144.875 C133.75533781 137.48022438 134.20199634 132.52781879 138 126 C138 125.34 138 124.68 138 124 C133.29318149 124 130.51029773 125.63802535 126.5 127.8125 Z M-38 141 C-37.67 141.99 -37.34 142.98 -37 144 C-34.64794711 144.89678185 -34.64794711 144.89678185 -31.75 145.4375 C-27.11572309 146.47040796 -22.68640638 147.73298754 -18.1875 149.25 C-11.73793 151.25875629 -7.77223766 151.26010803 -1.5625 148.4375 C-0.716875 147.963125 0.12875 147.48875 1 147 C1 146.34 1 145.68 1 145 C-0.7449418 143.57761843 -0.7449418 143.57761843 -3 142.1875 C-3.81726563 141.6615625 -4.63453125 141.135625 -5.4765625 140.59375 C-6.30929688 140.0678125 -7.14203125 139.541875 -8 139 C-8.75023437 138.5153125 -9.50046875 138.030625 -10.2734375 137.53125 C-20.95938258 130.6986011 -29.277853 131.84845499 -38 141 Z M28 145 C27.34 146.32 26.68 147.64 26 149 C26.66 149 27.32 149 28 149 C26.52307692 154.66153846 26.52307692 154.66153846 23.875 156.375 C23.25625 156.58125 22.6375 156.7875 22 157 C22 157.66 22 158.32 22 159 C22.72445312 159.17015625 23.44890625 159.3403125 24.1953125 159.515625 C29.95408347 160.95915692 34.24614077 162.46507903 39 166 C39.66 166 40.32 166 41 166 C41.2475 164.88625 41.495 163.7725 41.75 162.625 C43 159 43 159 44.84765625 157.953125 C45.55792969 157.63859375 46.26820313 157.3240625 47 157 C48.26208117 156.08544842 49.49248604 155.12559737 50.6875 154.125 C51.28949219 153.63257813 51.89148438 153.14015625 52.51171875 152.6328125 C54.20487499 150.77522902 54.60184921 149.45260887 55 147 C54.34 147.33 53.68 147.66 53 148 C45.86799603 148.53208638 39.4680795 148.37189655 32.8046875 145.65625 C30.85015368 144.82912847 30.85015368 144.82912847 28 145 Z M-58 156 C-58 156.99 -58 157.98 -58 159 C-57.24976563 159.10957031 -56.49953125 159.21914063 -55.7265625 159.33203125 C-50.65096996 160.11830062 -45.80721014 160.97039639 -40.9375 162.625 C-35.25438189 164.409554 -28.70202189 165.5739135 -23.04296875 163.16796875 C-20.77105586 161.69205454 -18.91128923 159.91128923 -17 158 C-17.03684573 155.93235414 -17.03684573 155.93235414 -18 154 C-19.61732264 152.90224512 -19.61732264 152.90224512 -21.68359375 152.296875 C-22.44172363 152.03825684 -23.19985352 151.77963867 -23.98095703 151.51318359 C-24.79161621 151.26133301 -25.60227539 151.00948242 -26.4375 150.75 C-27.66895752 150.35868896 -27.66895752 150.35868896 -28.92529297 149.95947266 C-39.71284663 146.6892888 -50.39351126 146.17495204 -58 156 Z M2.875 153.93359375 C0.61566043 155.21859313 -1.54324792 155.74893587 -4.0625 156.375 C-9.17233542 157.76999278 -11.16625895 159.56047236 -14 164 C-14 164.66 -14 165.32 -14 166 C-16.03567115 167.0616879 -18.02232155 168.00806611 -20.18359375 168.7890625 C-25.7792546 170.86440292 -27.84185316 172.84574705 -30.625 178.03515625 C-33.63290775 182.33338807 -38.93400043 184.35724458 -43.8125 185.875 C-47.26283291 187.64945692 -48.79629117 190.36587269 -50 194 C-49.45444918 200.27383442 -44.16183004 204.64459647 -40 209 C-39.02408417 205.61682513 -39.14143345 203.4342662 -40 200 C-39.18273437 200.44988281 -38.36546875 200.89976562 -37.5234375 201.36328125 C-33.59861926 203.1864507 -29.82158875 204.2123433 -25.625 205.1875 C-24.52091797 205.45336914 -24.52091797 205.45336914 -23.39453125 205.72460938 C-21.5979095 206.15626525 -19.79916166 206.579056 -18 207 C-17.02391783 204.07175348 -16.91773332 202.04386724 -17 199 C-16.37996094 198.93941406 -15.75992188 198.87882812 -15.12109375 198.81640625 C-12.78172647 198.19190968 -12.78172647 198.19190968 -11.91015625 195.77734375 C-11.63042969 194.84019531 -11.35070312 193.90304687 -11.0625 192.9375 C-9.58912914 188.45383023 -7.85006735 184.92772087 -5.21484375 181.04296875 C-3.81517237 178.68918055 -2.97056498 176.33101457 -2.0625 173.75 C-0.37847821 169.23654888 -0.37847821 169.23654888 3 167.125 C7.78157087 163.73805396 8.63046729 158.52646728 10 153 C10 152.34 10 151.68 10 151 C6.54700218 151 5.58050361 151.99239491 2.875 153.93359375 Z M16 151 C15.319375 152.093125 14.63875 153.18625 13.9375 154.3125 C13.36322266 155.23482422 13.36322266 155.23482422 12.77734375 156.17578125 C11.68887926 158.17133075 11.68887926 158.17133075 13 161 C13.5775 160.236875 14.155 159.47375 14.75 158.6875 C16.7241359 156.32950434 18.57169162 154.82123129 21 153 C21 152.34 21 151.68 21 151 C19.35 151 17.7 151 16 151 Z M65 152 C65.2165625 152.66644531 65.433125 153.33289063 65.65625 154.01953125 C67.71878013 160.84688794 68.37149571 166.88654513 68 174 C69.46491133 173.62925084 70.92195569 173.22732811 72.375 172.8125 C73.18710937 172.59207031 73.99921875 172.37164062 74.8359375 172.14453125 C77.1827914 171.15627653 77.1827914 171.15627653 78.24609375 168.7421875 C79.02796664 165.89827677 79.44298425 163.25069744 79.6875 160.3125 C79.77386719 159.35988281 79.86023438 158.40726563 79.94921875 157.42578125 C80.1886466 154.98909698 80.1886466 154.98909698 79 153 C75.72444392 152.52998967 75.72444392 152.52998967 71.9375 152.375 C70.00197266 152.26285156 70.00197266 152.26285156 68.02734375 152.1484375 C66.52880859 152.07496094 66.52880859 152.07496094 65 152 Z M58 154 C57.7525 154.5878125 57.505 155.175625 57.25 155.78125 C55.4193057 159.03073238 52.74384243 160.89836274 49.875 163.21875 C47.22273787 165.73839902 46.10761988 167.69995181 45.8046875 171.359375 C45.82789063 172.14828125 45.85109375 172.9371875 45.875 173.75 C45.89304687 174.54921875 45.91109375 175.3484375 45.9296875 176.171875 C45.95289063 176.77515625 45.97609375 177.3784375 46 178 C48.49612935 176.75193533 48.7237356 175.81007774 49.875 173.3125 C51.17249924 170.5955561 52.5294284 168.09603368 54.25 165.625 C56.18490007 163.24845946 56.18490007 163.24845946 56 161 C56.99 161 57.98 161 59 161 C57.27410759 167.26771454 54.75902309 172.39127847 51.20703125 177.8359375 C49.75644272 180.02368226 49.75644272 180.02368226 50 183 C55.20670288 182.68444225 58.57730756 179.69871603 62 176 C64.53801133 168.38596602 62.57937948 161.35430221 60 154 C59.34 154 58.68 154 58 154 Z M155.98828125 156.57421875 C155.23409912 156.90977783 154.47991699 157.24533691 153.70288086 157.59106445 C152.91405518 157.95288818 152.12522949 158.31471191 151.3125 158.6875 C150.50756104 159.05254639 149.70262207 159.41759277 148.87329102 159.79370117 C140.60296497 163.32169301 140.60296497 163.32169301 133 168 C131.89629957 171.3111013 132.07326359 173.24748949 132.4375 176.6875 C132.59025391 178.17830078 132.59025391 178.17830078 132.74609375 179.69921875 C132.82988281 180.45847656 132.91367187 181.21773437 133 182 C137.85640151 181.87062865 141.67447935 181.3887565 145.12890625 177.76953125 C146.44910358 175.87858194 147.73437464 173.96288722 148.98828125 172.02734375 C153.18208478 165.71628018 158.62486645 160.31460276 164 155 C160.3683013 155 159.11179018 155.17238169 155.98828125 156.57421875 Z M21 164 C22.32863583 175.21655553 22.32863583 175.21655553 27.625 184.9375 C31.32773255 186.59398561 35.00639672 186.23040019 39 186 C39.33 184.68 39.66 183.36 40 182 C39.13375 181.30132812 38.2675 180.60265625 37.375 179.8828125 C36.24974479 178.96385408 35.12475861 178.04456616 34 177.125 C33.42765625 176.66480469 32.8553125 176.20460938 32.265625 175.73046875 C30.80601181 174.53150078 29.3986243 173.26958455 28 172 C28 171.34 28 170.68 28 170 C32.67105792 171.55701931 36.08705685 174.08447373 40 177 C38.62734654 171.81442026 35.49982931 168.70316425 31 166 C27.69534198 164.98503225 24.4301929 164.4003042 21 164 Z M-69.75 167 C-73.01055601 171.34740802 -75 175.51683032 -75 181 C-70.68676761 180.91839709 -66.37487476 180.80561672 -62.0625 180.6875 C-60.85013672 180.66494141 -59.63777344 180.64238281 -58.38867188 180.61914062 C-47.09353823 180.50112316 -47.09353823 180.50112316 -37.3515625 175.47851562 C-35.77577563 173.67845591 -35.77577563 173.67845591 -34 171 C-34.89044552 168.63796739 -34.89044552 168.63796739 -38.0703125 167.9296875 C-54.30496389 163.22466587 -54.30496389 163.22466587 -69.75 167 Z M189.29638672 172.86816406 C186.15225814 174.41783237 182.9141254 175.64214451 179.64111328 176.89038086 C162.89760424 183.28152738 162.89760424 183.28152738 152 197 C149.29068115 202.93773192 149.29068115 202.93773192 149.8125 209.10546875 C150.84653689 210.75516576 151.92000962 212.38001443 153 214 C153.66 214 154.32 214 155 214 C155.24234375 213.48050781 155.4846875 212.96101563 155.734375 212.42578125 C157.7818547 208.1654485 159.98061973 204.66639032 163 201 C163 200.34 163 199.68 163 199 C163.56589844 198.73445313 164.13179688 198.46890625 164.71484375 198.1953125 C169.08791848 195.90785803 172.99115755 192.86425651 177 190 C177.98742187 189.30777344 178.97484375 188.61554688 179.9921875 187.90234375 C180.96414063 187.21269531 181.93609375 186.52304687 182.9375 185.8125 C183.83339844 185.17957031 184.72929687 184.54664063 185.65234375 183.89453125 C188.05119737 182.11800906 188.05119737 182.11800906 189.62890625 179.82421875 C191 178 191 178 194 177 C188.96399866 186.80587254 182.06990307 192.99919738 173.3125 199.5 C166.64367848 204.59899274 161.66147121 211.01558636 159 219 C159 220.32 159 221.64 159 223 C162.79248163 222.04695002 163.87114719 221.20035494 166.02734375 217.84765625 C167.00777016 215.96038512 167.94146725 214.05435844 168.87304688 212.14257812 C171.20826934 207.65612042 173.20856569 205.6590496 178 204 C180.30859375 203.98046875 180.30859375 203.98046875 182.4375 204.1875 C184.81072919 204.12001343 184.81072919 204.12001343 187 203 C193.50869242 194.13031131 198.4077695 180.96084404 198 170 C194.45868175 170 192.38552086 171.26325407 189.29638672 172.86816406 Z M5.06640625 173.08203125 C2.7650454 176.33177899 0.75917293 179.65532029 -1.1875 183.125 C-1.54263672 183.74503906 -1.89777344 184.36507812 -2.26367188 185.00390625 C-4.75766825 189.40507633 -6.13576748 192.63204388 -6.0625 197.6875 C-6.05347656 198.49574219 -6.04445312 199.30398438 -6.03515625 200.13671875 C-6.02355469 200.75160156 -6.01195312 201.36648438 -6 202 C-4.2984375 202.81791016 -4.2984375 202.81791016 -2.5625 203.65234375 C6.13642969 207.96373572 13.30321779 211.83139364 19 220 C20.46184058 219.77139942 21.91955419 219.51629608 23.375 219.25 C24.18710938 219.11078125 24.99921875 218.9715625 25.8359375 218.828125 C28.63242803 217.75798783 28.79404974 216.65309058 30 214 C32.21977658 212.37283346 34.54394278 211.27351115 37 210 C35.40604381 204.54906339 31.69771385 201.77831768 27.51953125 198.28125 C21.43307661 192.99524721 18.8705676 187.49369092 16.875 179.6875 C15.80382173 174.85569809 15.80382173 174.85569809 13 171 C9.26858777 170.4321764 7.70076912 170.24543446 5.06640625 173.08203125 Z M135.5625 187.25 C132.90220969 191.99077376 133.53836566 197.75553114 134 203 C134.33 203.99 134.66 204.98 135 206 C137.31 206 139.62 206 142 206 C142.0928125 204.0509375 142.0928125 204.0509375 142.1875 202.0625 C142.76059356 196.59206147 145.0714003 192.57120912 148 188 C145.72713153 185.40934445 145.17033029 185.02787223 141.5625 184.4375 C137.89559112 184.67850879 137.89559112 184.67850879 135.5625 187.25 Z M-88.4375 192.9375 C-90.14826064 195.19570404 -91.10660006 197.31980019 -92 200 C-91.67 200.33 -91.34 200.66 -91 201 C-76.92911297 200.93654617 -66.46344848 200.01575404 -55.8359375 190.05859375 C-53.77813549 188.21095291 -53.77813549 188.21095291 -54 186 C-72.31822347 185.40843578 -72.31822347 185.40843578 -88.4375 192.9375 Z M46.75390625 189.16015625 C40.00194967 189.34368645 40.00194967 189.34368645 34 192 C33.33256123 194.41344667 33.33256123 194.41344667 34 197 C34.76441406 197.60457031 35.52882812 198.20914063 36.31640625 198.83203125 C39.16275022 201.13147944 40.58911453 203.17866659 42.4375 206.3125 C43.62335616 208.209362 44.81077095 210.1052508 46 212 C46.69029297 213.10794922 46.69029297 213.10794922 47.39453125 214.23828125 C49.63440144 217.35602564 50.99623335 218.77060735 54.8203125 219.64453125 C57.56665814 219.90792757 60.24253274 220.03434568 63 220 C66.8195846 213.56325718 66.8195846 213.56325718 67.875 206.32421875 C65.98601569 199.42298631 62.00683781 194.00683781 57 189 C53.54893744 188.76992916 50.20780384 188.98974734 46.75390625 189.16015625 Z M123.0625 191.375 C122.35222656 191.81585938 121.64195312 192.25671875 120.91015625 192.7109375 C118.8808284 193.99211766 118.8808284 193.99211766 117 196 C117.32110689 199.53217579 117.87816502 202.63449506 119 206 C119.46216038 210.15944345 119.58555104 212.20667279 117.0625 215.625 C113.26553452 218.56958548 109.26894833 220.81437286 105 223 C106.06764731 226.02500071 107.25894376 228.38449224 109.0625 231.0625 C110.70988017 233.5601409 111.55455115 235.10458245 112 238 C112.66 238 113.32 238 114 238 C114.46841309 236.9941687 114.46841309 236.9941687 114.94628906 235.96801758 C116.37387843 232.91286009 117.81182014 229.86268554 119.25 226.8125 C119.98669922 225.22985352 119.98669922 225.22985352 120.73828125 223.61523438 C121.22167969 222.59365234 121.70507812 221.57207031 122.203125 220.51953125 C122.86296387 219.11344604 122.86296387 219.11344604 123.53613281 217.67895508 C125 215 125 215 127.1640625 212.47265625 C129.30204196 209.59320732 129.43067978 208.43340029 129.171875 204.91796875 C129.11386719 203.98662109 129.05585938 203.05527344 128.99609375 202.09570312 C128.87427734 200.65614258 128.87427734 200.65614258 128.75 199.1875 C128.68425781 198.20845703 128.61851562 197.22941406 128.55078125 196.22070312 C128.38626852 193.81176668 128.20211749 191.4060244 128 189 C126.13410843 189 124.59876787 190.41379081 123.0625 191.375 Z M220 199 C214.42578606 199.98000519 209.4252586 200.63056723 203.875 199.1875 C200.81152861 198.66123658 200.81152861 198.66123658 198.375 201.125 C197.59125 202.07375 196.8075 203.0225 196 204 C195.236875 204.886875 194.47375 205.77375 193.6875 206.6875 C191.80351031 208.79213938 191.80351031 208.79213938 192 211 C188.13401687 211.64433052 184.66612226 212.02281027 180.75 211.8125 C177.04094281 211.56622345 177.04094281 211.56622345 175.3828125 213.69921875 C173.94528226 216.09104166 173.03287315 218.36475759 172.125 221 C170.46162583 225.26828088 169.12447367 227.69796818 165 230 C162.67448424 230.69344453 160.34163843 231.36311827 158 232 C157.30081695 234.58067563 156.61538951 237.16372847 155.9375 239.75 C155.73833984 240.47960937 155.53917969 241.20921875 155.33398438 241.9609375 C154.36255593 245.71031044 153.84550613 248.30274238 155 252 C167.52532063 242.21530107 176.70800963 233.43405858 179 217 C179.66 217.33 180.32 217.66 181 218 C181.31241371 220.54941373 181.51303421 223.00361513 181.625 225.5625 C181.66367187 226.27341797 181.70234375 226.98433594 181.7421875 227.71679688 C181.83671783 229.47742425 181.91945817 231.23867728 182 233 C188.88768306 231.06943774 193.36557022 227.37822716 198 222 C200.77552261 216.54837649 201.39379636 211.03821091 201 205 C201.99 205.33 202.98 205.66 204 206 C204.73046875 207.77734375 204.73046875 207.77734375 205.1875 209.9375 C205.34605469 210.64777344 205.50460937 211.35804688 205.66796875 212.08984375 C206 214 206 214 206 216 C209.73351304 214.75549565 210.58919523 213.23503895 212.9375 210.125 C216.77501258 205.05268086 219.53786644 201.89751855 226 201 C225 204 225 204 222.67578125 205.8203125 C219.69594518 208.24768261 218.16848441 210.59699211 216.1875 213.875 C210.45770579 222.66708647 203.96099395 226.27615088 194.5390625 230.60546875 C191.74109971 231.8875696 191.74109971 231.8875696 190 235 C192.64 236.32 195.28 237.64 198 239 C198 239.66 198 240.32 198 241 C197.43603516 240.97905273 196.87207031 240.95810547 196.29101562 240.93652344 C193.69419751 240.85251499 191.09766638 240.80107771 188.5 240.75 C187.613125 240.71648437 186.72625 240.68296875 185.8125 240.6484375 C179.76539204 240.55950944 174.96428581 241.34906614 170 245 C169.34 245.99 168.68 246.98 168 248 C169.7664657 249.0076952 171.53833823 250.00591714 173.3125 251 C174.29863281 251.556875 175.28476562 252.11375 176.30078125 252.6875 C178.94942471 254.21864753 178.94942471 254.21864753 182 254 C183.70196856 251.7730825 183.70196856 251.7730825 185.1875 249 C185.71730469 248.071875 186.24710937 247.14375 186.79296875 246.1875 C187.19128906 245.465625 187.58960938 244.74375 188 244 C191.16115776 245.36983503 191.9927092 245.9890638 194 249 C195.4386494 248.93967927 196.87611902 248.85079867 198.3125 248.75 C199.11300781 248.70359375 199.91351563 248.6571875 200.73828125 248.609375 C203.11263103 248.16813467 203.11263103 248.16813467 204.734375 246.296875 C206.20211841 243.63319251 206.56942501 241.51077071 206.9375 238.5 C207.47677723 235.28145655 207.82355486 233.28231223 209.5625 230.5 C211.98288632 229.01053149 213.9062831 228.43372888 216.625 227.6875 C218.9915217 227.03071502 218.9915217 227.03071502 221 226 C222.54785694 222.83798005 222.54785694 222.83798005 223 219 C224.54109796 212.54592808 226.83465224 208.50490866 231.57421875 203.82421875 C233.41053849 201.86061946 233.41053849 201.86061946 233 198 C228.50057053 197.79548048 224.44047665 198.20785467 220 199 Z M-99 204 C-100.73987937 207.30045819 -102.38331674 210.63769554 -104 214 C-104.5775 215.134375 -105.155 216.26875 -105.75 217.4375 C-106.11184767 222.59382933 -103.82741394 225.49403418 -101.08984375 229.7421875 C-98.71303896 232.3100252 -97.42966544 232.7265778 -94 233 C-92.47224381 230.5735637 -91.95111563 229.39107497 -92.3125 226.5 C-92.6528125 225.2625 -92.6528125 225.2625 -93 224 C-94.1682268 219.47312117 -94.90171968 214.9664231 -95.375 210.3125 C-96.03050833 206.83830587 -96.48970156 206.22168124 -99 204 Z M-84.875 206 C-86.04675781 206.2784375 -86.04675781 206.2784375 -87.2421875 206.5625 C-87.82226562 206.706875 -88.40234375 206.85125 -89 207 C-88.88490339 208.41750563 -88.75746342 209.83401169 -88.625 211.25 C-88.55539063 212.03890625 -88.48578125 212.8278125 -88.4140625 213.640625 C-88.11865291 216.02737954 -88.11865291 216.02737954 -86.921875 218.0546875 C-86 220 -86 220 -86.625 223.875 C-87.15275601 227.28951781 -87.01344155 227.97150391 -85.4375 231.3125 C-82.79751563 234.223252 -80.5565199 235.41091664 -77 237 C-76.53255371 237.49346924 -76.06510742 237.98693848 -75.58349609 238.49536133 C-73.67859568 240.30539852 -72.25758758 240.73148567 -69.7265625 241.38671875 C-68.9015625 241.60263672 -68.0765625 241.81855469 -67.2265625 242.04101562 C-65.93878906 242.36102539 -65.93878906 242.36102539 -64.625 242.6875 C-63.77421875 242.91244141 -62.9234375 243.13738281 -62.046875 243.36914062 C-57.96868308 244.4140979 -54.24654475 245.32329662 -50 245 C-50.72316406 243.89591797 -50.72316406 243.89591797 -51.4609375 242.76953125 C-52.09257812 241.79371094 -52.72421875 240.81789063 -53.375 239.8125 C-54.00148437 238.84957031 -54.62796875 237.88664062 -55.2734375 236.89453125 C-57.79490993 232.66735689 -59 229.96418998 -59 225 C-57.68 224.34 -56.36 223.68 -55 223 C-55.20337627 221.57940157 -55.4390141 220.16340602 -55.6875 218.75 C-55.81511719 217.96109375 -55.94273437 217.1721875 -56.07421875 216.359375 C-57.71317301 212.18246204 -61.03377336 210.49416706 -64.90234375 208.515625 C-65.90394531 208.09796875 -66.90554687 207.6803125 -67.9375 207.25 C-68.93652344 206.82203125 -69.93554688 206.3940625 -70.96484375 205.953125 C-75.81968802 204.42856644 -79.98995663 204.81574706 -84.875 206 Z M-51 206 C-51.46144636 214.30603444 -49.29194821 221.40319645 -46 229 C-47.65 229 -49.3 229 -51 229 C-51.77140667 230.7989501 -51.77140667 230.7989501 -52 233 C-48.71257206 238.67828462 -43.35816382 242.4000014 -37.8203125 245.67578125 C-36 247 -36 247 -35 250 C-35.99 250.495 -35.99 250.495 -37 251 C-37 251.66 -37 252.32 -37 253 C-27.16651901 256.79821228 -27.16651901 256.79821228 -17 256 C-14.61368629 254.78948813 -12.25739216 253.52857303 -9.8984375 252.265625 C-5.42641101 250.31288028 -0.79625545 249.5835602 3.99609375 248.7734375 C7.00935596 247.99759105 8.13452825 247.42043288 10 245 C9.67 244.01 9.34 243.02 9 242 C1.22062166 239.40687389 -5.29757073 241.46532642 -12.68261719 244.22119141 C-16.25962436 245.5356338 -19.18209583 246.29144307 -23 246 C-22 244 -22 244 -20.29296875 243.25390625 C-19.59816406 243.02574219 -18.90335938 242.79757812 -18.1875 242.5625 C-15.02720166 241.43909054 -12.46258602 240.35997827 -10 238 C-10 237.34 -10 236.68 -10 236 C-15.45147426 235.12111308 -18.85211818 234.86551241 -24 237 C-32.77094972 237.61452514 -32.77094972 237.61452514 -36 236 C-33.69 235.34 -31.38 234.68 -29 234 C-29 233.34 -29 232.68 -29 232 C-30.88882917 230.58599435 -30.88882917 230.58599435 -33.25 229.1875 C-36.90663154 226.84380073 -39.53469824 224.64435913 -42 221 C-41.4534375 221.27714844 -40.906875 221.55429687 -40.34375 221.83984375 C-37.7479931 223.12474342 -35.13116593 224.35172996 -32.5 225.5625 C-31.09234375 226.21412109 -31.09234375 226.21412109 -29.65625 226.87890625 C-24.93017442 228.87358815 -21.14796633 229.09899935 -16 229 C-17.1094072 225.51329166 -18.26337666 222.22515763 -20 219 C-15.7734364 221.67723677 -12.2471168 224.51596977 -8.625 228 C-1.38229974 234.64566686 4.16173261 237.54452466 14 238 C13.58194033 230.02803462 12.98688527 223.95039665 8.0625 217.4375 C3.11775111 213.50188353 -3.52754919 209 -10 209 C-10 211.31 -10 213.62 -10 216 C-12.9379382 215.35610937 -15.875351 214.70997221 -18.8125 214.0625 C-19.64587891 213.88009766 -20.47925781 213.69769531 -21.33789062 213.50976562 C-22.54155273 213.24389648 -22.54155273 213.24389648 -23.76953125 212.97265625 C-24.50792236 212.81031494 -25.24631348 212.64797363 -26.00708008 212.48071289 C-28 212 -28 212 -31 211 C-32.35026777 213.12939828 -32.35026777 213.12939828 -31.0625 216.125 C-30.711875 217.07375 -30.36125 218.0225 -30 219 C-41.24015748 215.2992126 -41.24015748 215.2992126 -46 211 C-46.66 211 -47.32 211 -48 211 C-48.66 209.35 -49.32 207.7 -50 206 C-50.33 206 -50.66 206 -51 206 Z M131 217 C129.48624866 219.65603889 129.48624866 219.65603889 128.4375 222.625 C127.81488281 224.21634766 127.81488281 224.21634766 127.1796875 225.83984375 C126.45206632 227.78900116 125.72746025 229.73929091 125.0078125 231.69140625 C120.67527617 243.13145054 115.32566775 249.04470154 105.09301758 255.66357422 C100.65789653 258.57756075 97.36347043 261.07066249 95 266 C94.96167554 270.7369032 97.91859731 274.45029592 100.3125 278.375 C109.73084808 294.63155616 111.77860057 312.78158533 107 331 C111.05646377 329.18385843 111.05646377 329.18385843 114 326 C114.16756416 323.21902288 114.18131662 320.6431302 114.0625 317.875 C113.825538 303.65876092 118.17731207 289.00279337 128.296875 278.3828125 C131.20130899 276.02462527 134.36640912 274.17065164 137.6328125 272.359375 C138.41398437 271.91078125 139.19515625 271.4621875 140 271 C140.72832031 270.59265625 141.45664062 270.1853125 142.20703125 269.765625 C144.86777577 267.14545828 144.96897612 264.64326606 145.5625 261 C145.79755107 259.64526892 146.03586109 258.29109944 146.27734375 256.9375 C146.45305908 255.93589844 146.45305908 255.93589844 146.63232422 254.9140625 C147.14770555 252.23106808 147.87043523 249.62457313 148.625 247 C151.52019774 236.70764784 152.6627328 226.84354703 148 217 C145.79000708 214.23912908 144.11356591 213.49708244 140.625 213.0625 C139.87476563 212.95035156 139.12453125 212.83820313 138.3515625 212.72265625 C134.90781706 213.12881227 133.43319482 214.58283941 131 217 Z M70 216 C69.74984127 219.58357241 69.74984127 219.58357241 70 223 C71.60433809 222.52140759 73.20846416 222.04210442 74.8125 221.5625 C75.70582031 221.29566406 76.59914063 221.02882813 77.51953125 220.75390625 C79.35473055 220.19612127 81.18033726 219.60655425 83 219 C81.6910428 215.87802522 81.6910428 215.87802522 79 214 C74.94857881 213.74139865 73.45662331 213.69558446 70 216 Z M34.625 218.5625 C32.41353719 221.87969422 32.57339537 224.08945759 33 228 C34.70825068 231.23305313 34.70825068 231.23305313 37.875 231.9375 C41.01129763 232.28409512 41.01129763 232.28409512 43.3125 230.5625 C45.73279255 226.88724095 45.92997054 224.41185569 46 220 C45.10242444 217.85219923 45.10242444 217.85219923 43 217 C39.40649325 216.46479687 37.68118452 216.55185229 34.625 218.5625 Z M51.625 225.0625 C49.68094009 227.03426171 49.68094009 227.03426171 49.5 230.5 C49.67461117 233.99501107 49.67461117 233.99501107 51.75 236 C54.46246795 237.20554131 55.26968816 237.03238279 58 236 C59.58077659 234.54017381 59.58077659 234.54017381 60.8125 232.6875 C61.25207031 232.09324219 61.69164062 231.49898437 62.14453125 230.88671875 C63.18783023 229.01213766 63.18783023 229.01213766 62.76171875 226.83203125 C62.1526913 224.80376533 62.1526913 224.80376533 60 224 C56.7736324 223.7194463 54.59881746 223.73210798 51.625 225.0625 Z M24 225 C23.01 225.66 22.02 226.32 21 227 C21.33 229.97 21.66 232.94 22 236 C25.465 235.505 25.465 235.505 29 235 C28.55090939 233.51800098 28.09043436 232.03944764 27.625 230.5625 C27.24214844 229.32693359 27.24214844 229.32693359 26.8515625 228.06640625 C26.19117773 225.82201984 26.19117773 225.82201984 24 225 Z M67.8125 234.3125 C63.77170445 240.30402444 62.62847444 244.94101442 63 252 C63.82242188 252.07476562 64.64484375 252.14953125 65.4921875 252.2265625 C72.79945074 253.08723323 77.88328286 254.53821549 83.87890625 258.85546875 C85.9005682 260.19304718 85.9005682 260.19304718 88.046875 259.84375 C90.22422278 258.90313576 91.83421186 257.79279933 93.6875 256.3125 C97.9791066 252.97458376 102.44905203 249.97075771 107 247 C106.6944583 240.12531171 105.62439189 235.58552441 100.54296875 230.55859375 C95.36181716 225.9545831 91.13727604 225.75955208 84.4609375 225.84765625 C77.70551974 226.26584878 72.4086793 229.45368188 67.8125 234.3125 Z M-106 231 C-105.6079244 236.88113399 -103.6301526 241.36300104 -101.05859375 246.64453125 C-100 249 -100 249 -100 251 C-100.66 251 -101.32 251 -102 251 C-99.95333522 257.13999435 -91.26229828 259.42909492 -85.765625 262.18359375 C-83 264 -83 264 -81.984375 266.09765625 C-82 268 -82 268 -84 270 C-83.82337887 272.73762749 -83.23113395 273.77712083 -81.25 275.6875 C-78.80780338 277.11211469 -76.7854884 277.61312661 -74 278 C-73.67 278.99 -73.34 279.98 -73 281 C-63.01017763 286.01219462 -52.92888359 286.1479097 -42 286 C-42 285.34 -42 284.68 -42 284 C-52.67654034 276.14403504 -64.02107799 273.74092271 -77 273 C-77 272.34 -77 271.68 -77 271 C-73.7 270.34 -70.4 269.68 -67 269 C-68.95831027 264.88769781 -68.95831027 264.88769781 -72.44921875 262.9296875 C-73.13306641 262.59066406 -73.81691406 262.25164062 -74.52148438 261.90234375 C-75.59366211 261.39380859 -75.59366211 261.39380859 -76.6875 260.875 C-77.38294922 260.52824219 -78.07839844 260.18148438 -78.79492188 259.82421875 C-83.12450703 257.71400078 -87.33274616 256.18669364 -92 255 C-91.9278125 254.26394531 -91.855625 253.52789062 -91.78125 252.76953125 C-92.05675161 249.28148408 -93.12103376 248.19391086 -95.5 245.6875 C-96.1496875 244.99011719 -96.799375 244.29273438 -97.46875 243.57421875 C-97.9740625 243.05472656 -98.479375 242.53523438 -99 242 C-98.48050781 242.34933594 -97.96101563 242.69867188 -97.42578125 243.05859375 C-93.22359773 245.93267667 -93.22359773 245.93267667 -88.4375 247.375 C-85.57861388 248.10804772 -84.96581848 248.92365104 -83 251.0625 C-78.17367276 256.24354617 -72.07371343 259.48363959 -66 263 C-64.7018576 260.7763932 -64.7018576 260.7763932 -65 257 C-64.34 257 -63.68 257 -63 257 C-62.731875 257.64066406 -62.46375 258.28132813 -62.1875 258.94140625 C-57.71270002 268.81834963 -50.35072579 274.70384203 -41 280 C-40.34 280 -39.68 280 -39 280 C-39.49629408 269.74325562 -43.10272444 261.73284588 -50.70703125 254.69921875 C-57.72281051 249.50013191 -64.01069992 248.71671464 -72.43359375 249.87890625 C-77.45756104 250.11595798 -81.11013313 247.6808108 -84.765625 244.4296875 C-85.33796875 243.89601563 -85.9103125 243.36234375 -86.5 242.8125 C-89.07633988 240.44109624 -90.50385274 239.71240368 -94 239.625 C-96.92180699 239.50539387 -97.80339643 239.17690533 -100.02734375 237.17578125 C-101.27113555 235.71833196 -102.48192962 234.23184976 -103.65234375 232.71484375 C-104.09707031 232.14894531 -104.54179688 231.58304688 -105 231 C-105.33 231 -105.66 231 -106 231 Z M-112 238 C-115.47353037 247.80580992 -115.47353037 247.80580992 -117 258 C-116.525625 258.474375 -116.05125 258.94875 -115.5625 259.4375 C-114 261 -114 261 -113.75 264.875 C-113.86532611 268.00033757 -114.23950468 270.95801871 -115 274 C-114.01 274.66 -113.02 275.32 -112 276 C-111.87882812 275.27554688 -111.75765625 274.55109375 -111.6328125 273.8046875 C-110.18069815 265.42710472 -110.18069815 265.42710472 -108.625 261.75 C-107.89281557 258.52838851 -108.27339115 258.00206028 -109.875 255.25 C-110.57625 254.1775 -111.2775 253.105 -112 252 C-112 251.34 -112 250.68 -112 250 C-110.68 249.34 -109.36 248.68 -108 248 C-108.28127421 246.51882199 -108.57533732 245.04006751 -108.875 243.5625 C-109.11863281 242.32693359 -109.11863281 242.32693359 -109.3671875 241.06640625 C-109.57601562 240.38449219 -109.78484375 239.70257813 -110 239 C-110.66 238.67 -111.32 238.34 -112 238 Z M-136 239 C-140.36999473 243.4792446 -143.1549246 248.02160996 -145.9375 253.5625 C-148.89526894 259.42960824 -151.69577876 262.99477172 -157 267 C-158.33614338 270.22010555 -157.85541571 272.03278566 -156.5625 275.1875 C-154.89232234 279.86707612 -154.26195491 284.05790061 -155 289 C-155.96887581 291.01526169 -156.9641321 293.01833966 -158 295 C-157.90470695 298.52584271 -156.43595457 301.1871519 -154.9375 304.3125 C-152.84887588 308.87709308 -152.50058963 312.00589633 -153 317 C-153.63903117 318.67745682 -154.30341637 320.34561387 -155 322 C-155.50010524 325.04230823 -155.50010524 325.04230823 -155 328 C-151.53635903 332.23144315 -146.88718911 334.43048393 -142.1328125 336.91210938 C-138.16296167 339.07167415 -135.41340511 341.14842766 -133 345 C-133.61108899 348.32704007 -134.49425901 350.37754955 -136.625 353 C-138.49392209 355.71843213 -138.21964694 357.7785115 -138 361 C-130.47115666 364.50099713 -123.22338785 366.02041148 -115 367 C-115 363.4996928 -115.56312388 363.00351268 -117.625 360.3125 C-120.60336271 356.04770832 -122.30445297 351.80364144 -124 346.9375 C-128.23922246 335.07396351 -133.66381942 329.66809029 -145 324 C-144 323 -144 323 -140.4375 322.9375 C-139.303125 322.958125 -138.16875 322.97875 -137 323 C-135.45734111 318.56485569 -136.8569506 315.84002437 -138.61328125 311.66796875 C-140.48832718 308.06048602 -142.86505037 305.07953469 -145.51171875 302.0078125 C-147.0323184 299.95639984 -147.58055241 298.494315 -148 296 C-147.01 295.34 -146.02 294.68 -145 294 C-146.21119677 286.65313537 -148.28671113 279.92810652 -151 273 C-149.68 273.33 -148.36 273.66 -147 274 C-146.16142312 271.39741676 -145.32896656 268.79314353 -144.5 266.1875 C-144.14228516 265.08051758 -144.14228516 265.08051758 -143.77734375 263.95117188 C-142.80059864 260.86744804 -142 258.25504191 -142 255 C-141.01 255 -140.02 255 -139 255 C-139.33 262.26 -139.66 269.52 -140 277 C-138.02 275.35 -136.04 273.7 -134 272 C-134.28875 273.01578125 -134.5775 274.0315625 -134.875 275.078125 C-137.18783116 283.53789244 -138.60328846 291.15176923 -138 300 C-137.34 300.33 -136.68 300.66 -136 301 C-135.46375 299.906875 -134.9275 298.81375 -134.375 297.6875 C-132.27470525 293.95532156 -130.030914 292.55739859 -126 291 C-126.4375 292.3125 -126.875 293.625 -127.3125 294.9375 C-127.71662109 296.17306641 -127.71662109 296.17306641 -128.12890625 297.43359375 C-128.68232733 299.06407648 -129.26995305 300.68364733 -129.90234375 302.28515625 C-133.27550627 311.09890349 -131.46953586 317.64240193 -127.83984375 326.12890625 C-127.42412109 327.05509766 -127.42412109 327.05509766 -127 328 C-123.84669446 327.39305845 -121.81111133 326.3583335 -119.25 324.4375 C-118.63640625 323.98246094 -118.0228125 323.52742188 -117.390625 323.05859375 C-116.93171875 322.70925781 -116.4728125 322.35992187 -116 322 C-116.20496094 322.56847656 -116.40992188 323.13695312 -116.62109375 323.72265625 C-116.89050781 324.49480469 -117.15992188 325.26695312 -117.4375 326.0625 C-117.70433594 326.81660156 -117.97117188 327.57070313 -118.24609375 328.34765625 C-120.01706185 334.57816061 -120.07914049 339.63481091 -118.4375 345.875 C-118.25840088 346.57318848 -118.07930176 347.27137695 -117.89477539 347.99072266 C-115.97220148 354.93455983 -113.12106234 360.91929177 -107 365 C-106.01 364.67 -105.02 364.34 -104 364 C-104.55429688 363.27554688 -105.10859375 362.55109375 -105.6796875 361.8046875 C-106.40414062 360.83789062 -107.12859375 359.87109375 -107.875 358.875 C-108.59429687 357.92367187 -109.31359375 356.97234375 -110.0546875 355.9921875 C-114.60386372 348.99486023 -114.37718946 342.98384658 -113 335 C-112.06674054 331.83749728 -111.01713938 328.77080941 -109.83984375 325.69140625 C-108.98888613 322.96438392 -108.84043281 320.83617814 -109 318 C-110.06541016 317.52820313 -110.06541016 317.52820313 -111.15234375 317.046875 C-112.07144531 316.61890625 -112.99054688 316.1909375 -113.9375 315.75 C-114.85402344 315.33234375 -115.77054688 314.9146875 -116.71484375 314.484375 C-119 313 -119 313 -119.90625 311.19140625 C-120.03026611 308.29252978 -119.36691987 305.97258035 -118.5625 303.1875 C-117.34112277 298.57215748 -116.39344699 294.75133189 -117 290 C-119.11683831 286.51344279 -123.35554298 285.44403014 -127 284 C-126.24401914 277.57416268 -126.24401914 277.57416268 -124.9375 274.5 C-123.64317422 271.04846459 -123.47763514 268.65655405 -124 265 C-125.94348501 263.26776336 -127.94720004 261.60118397 -130 260 C-132.30923283 254.50561845 -132.75038263 248.82039129 -133.4375 242.94921875 C-133.623125 241.97597656 -133.80875 241.00273437 -134 240 C-134.66 239.67 -135.32 239.34 -136 239 Z M25 241 C25.165 241.804375 25.33 242.60875 25.5 243.4375 C26.61090046 251.35266577 26.58402726 256.26720996 22 263 C25.34237013 266.0598026 27.64964091 266.38397379 32.125 266.3125 C33.70667969 266.30669922 33.70667969 266.30669922 35.3203125 266.30078125 C38.15067533 266.26520482 38.15067533 266.26520482 40 264 C40.40667927 260.90923753 40.32699434 259.48338294 38.5625 256.875 C38.046875 256.25625 37.53125 255.6375 37 255 C35.32520205 249.97560615 35.76384378 245.09914442 37 240 C32.48281619 238.63115642 29.41225737 239.52924754 25 241 Z M45.25 240.6875 C42.89979326 241.93054454 42.89979326 241.93054454 41 244 C41.23864442 249.03505052 41.23864442 249.03505052 44 253 C48.65194714 253.34216235 48.65194714 253.34216235 53 252 C53.46651207 249.87423218 53.46651207 249.87423218 53.625 247.4375 C53.69976562 246.61121094 53.77453125 245.78492188 53.8515625 244.93359375 C53.90054688 244.29550781 53.94953125 243.65742188 54 243 C49.89385669 240.38737987 49.89385669 240.38737987 45.25 240.6875 Z M-21.375 266.375 C-30.1829029 274.85877207 -37.53207948 285.80436407 -38.11352539 298.47363281 C-38.10828857 299.37436523 -38.10305176 300.27509766 -38.09765625 301.203125 C-38.09443359 302.1828125 -38.09121094 303.1625 -38.08789062 304.171875 C-38.07951172 305.18765625 -38.07113281 306.2034375 -38.0625 307.25 C-38.05798828 308.28125 -38.05347656 309.3125 -38.04882812 310.375 C-38.03706088 312.91672573 -38.02062011 315.45833319 -38 318 C-37.01 317.505 -37.01 317.505 -36 317 C-35.52769607 314.65833431 -35.52769607 314.65833431 -35.25 311.8125 C-33.52162696 300.63125593 -29.01056879 291.34154222 -21.5390625 282.890625 C-19.78956126 281.147802 -19.78956126 281.147802 -20 279 C-19.34 279 -18.68 279 -18 279 C-18 278.34 -18 277.68 -18 277 C-17.34 277 -16.68 277 -16 277 C-16 276.34 -16 275.68 -16 275 C-15.44183594 274.74863281 -14.88367188 274.49726563 -14.30859375 274.23828125 C-11.64021549 272.80701914 -9.44243562 271.05923884 -7.0625 269.1875 C-1.09200271 264.78734713 5.00083572 262.32425078 12 260 C13.39798828 259.52046875 13.39798828 259.52046875 14.82421875 259.03125 C16.87652299 258.33533522 18.93723887 257.66427901 21 257 C21 256.34 21 255.68 21 255 C4.46551262 253.2137926 -8.45147042 255.15652379 -21.375 266.375 Z M188 255 C186.36907359 257.32519233 184.88937118 259.62895289 183.4375 262.0625 C183.02564453 262.71927734 182.61378906 263.37605469 182.18945312 264.05273438 C179.20745677 269.00645991 177.54202408 273.44775086 178.3046875 279.36328125 C179.42288217 283.26795862 179.42288217 283.26795862 181 287 C181.66 287 182.32 287 183 287 C184.38529821 281.54538831 185.2396943 276.63281599 185 271 C185.99 271 186.98 271 188 271 C188.40126566 280.05076992 188.21919875 286.12221814 182.4375 293.375 C180 296 180 296 178 297 C178 297.66 178 298.32 178 299 C179.19625 298.773125 180.3925 298.54625 181.625 298.3125 C185.95696199 297.79297017 188.33482106 298.47509895 192 301 C197.40507588 306.53077532 200.06693414 312.34885991 201 320 C197.15551695 316.72591503 195.64570919 312.22056022 193.59765625 307.71484375 C191.936489 304.89207789 191.03678652 304.0559884 188 303 C186.55459261 307.62530366 187.37077545 311.55028994 189 316 C192.06368286 321.38785606 195.44245931 325.98663482 201.3125 328.3125 C202.199375 328.539375 203.08625 328.76625 204 329 C205.82831657 327.17168343 205.21612455 324.39629312 205.25 321.9375 C205.17383771 314.20279588 203.92461382 308.42149896 198.6015625 302.4453125 C195.93585562 300.03967458 192.94154354 298.17591754 189.890625 296.296875 C188 295 188 295 187 293 C188.918125 292.8453125 188.918125 292.8453125 190.875 292.6875 C198.42684205 291.80882655 205.81505985 290.35369707 211.52734375 285.01953125 C214.69037632 280.68189773 217 274.41185597 217 269 C210.19796625 268.62365797 205.24309927 269.22528921 199 272 C198.67 274.97 198.34 277.94 198 281 C201.98682384 279.27011122 201.98682384 279.27011122 204.4375 276.5625 C206.83602969 274.16397031 209.03655111 272.6087294 212 271 C206.69796727 279.69533368 198.85328595 287.71557135 189 291 C189.3609375 290.33355469 189.721875 289.66710937 190.09375 288.98046875 C195.63016017 277.98454299 194.74174111 269.47725772 191 258 C190.67 257.01 190.34 256.02 190 255 C189.34 255 188.68 255 188 255 Z M178 255 C168.69939033 255.28355517 161.21720058 255.6773694 154.5 262.5625 C152.73795129 264.94881861 152.73795129 264.94881861 153 268 C153.77085937 268.13277344 154.54171875 268.26554687 155.3359375 268.40234375 C156.33882813 268.57894531 157.34171875 268.75554687 158.375 268.9375 C159.37273437 269.11152344 160.37046875 269.28554688 161.3984375 269.46484375 C164 270 164 270 166 271 C167.99960012 271.039992 170.00047242 271.04346799 172 271 C173.19725883 268.71296692 174.38297018 266.42115138 175.5625 264.125 C175.90474609 263.47402344 176.24699219 262.82304687 176.59960938 262.15234375 C177.46082891 260.46470143 178.23686703 258.73420407 179 257 C178.67 256.34 178.34 255.68 178 255 Z M46 259 C44.73863167 261.00032369 44.73863167 261.00032369 44 263 C45.00417969 263.08636719 46.00835937 263.17273438 47.04296875 263.26171875 C63.27362509 264.84967382 76.18429011 269.62642315 86.98046875 282.25390625 C96.91992144 295.76925488 100.35289499 309.46535123 101 326 C104.52299901 322.47700099 104.17757367 317.84867311 104.25 313.0625 C104.07620382 295.95323115 98.32706142 280.78921478 87 268 C84.1823206 265.3037723 81.29925312 263.07431151 78 261 C76.97326172 260.35224609 76.97326172 260.35224609 75.92578125 259.69140625 C67.02419989 254.93621769 55.34306822 255.88564393 46 259 Z M-35 259 C-33.69844994 263.07964281 -33.69844994 263.07964281 -32 267 C-29.00306862 266.00102287 -27.97290587 265.34869747 -26 263 C-26 262.34 -26 261.68 -26 261 C-30.455 260.01 -30.455 260.01 -35 259 Z M274.5625 266.5625 C271.26037225 268.52487558 270.17817072 269 266.1875 269 C263 268 263 268 260.9375 266.375 C259.02884302 264.76769828 259.02884302 264.76769828 256.3125 264.8125 C252.76238902 266.0851813 251.26828632 267.43686568 248.5625 270 C245.69276899 272.67777576 244.24013203 273.92416883 240.4375 275.125 C237.01260867 275.0004585 234.22684539 274.44874536 230.9921875 273.375 C228.3020317 272.86861773 226.57832649 273.07163367 224 274 C222.66890714 276.12169709 222.66890714 276.12169709 221.9375 278.75 C220.49774972 282.86357223 218.89535018 285.69102837 216 289 C216 289.66 216 290.32 216 291 C230.78934834 288.39462257 242.51417366 285.88109396 252.63671875 273.953125 C254.19078705 272.12364194 254.19078705 272.12364194 254 270 C254.99 270.33 255.98 270.66 257 271 C255.84813754 275.51884505 254.42002581 279.03995776 252 283 C252 283.99 252 284.98 252 286 C263.23423089 285.87501029 263.23423089 285.87501029 273 281 C276.31975493 277.03959061 278.98750299 273.12067454 280 268 C280.99 268.495 280.99 268.495 282 269 C282.02712066 270.43739513 282.04645067 271.87493863 282.0625 273.3125 C282.07410156 274.11300781 282.08570313 274.91351563 282.09765625 275.73828125 C282 278 282 278 281 281 C284.10436581 280.32513787 286.7944591 279.237272 289.6875 277.9375 C294.71912191 275.86653526 298.60040095 275.65163877 304 276 C304 276.66 304 277.32 304 278 C302.7625 278.37125 301.525 278.7425 300.25 279.125 C295.12814206 280.8133462 290.46521847 283.19082637 285.69921875 285.6953125 C281.82575823 287.56757851 278.2806129 288.14506589 274.015625 288.53515625 C273.08105469 288.62216797 272.14648438 288.70917969 271.18359375 288.79882812 C270.21550781 288.88583984 269.24742187 288.97285156 268.25 289.0625 C267.26644531 289.15337891 266.28289062 289.24425781 265.26953125 289.33789062 C262.84659453 289.56136537 260.42343149 289.78196733 258 290 C259.52360906 293.10021321 261.19821362 296.05162229 263 299 C259.4014741 298.6626382 257.03150597 297.50004708 254.0625 295.5625 C247.80625218 291.53147254 241.47423428 289.74981333 234 291 C233.34 291.99 232.68 292.98 232 294 C232.49371094 294.47050781 232.98742187 294.94101562 233.49609375 295.42578125 C234.13675781 296.04839844 234.77742188 296.67101562 235.4375 297.3125 C236.07558594 297.92738281 236.71367187 298.54226563 237.37109375 299.17578125 C239 301 239 301 240 304 C238.20780032 303.35564727 236.41625636 302.70947048 234.625 302.0625 C233.62726563 301.70285156 232.62953125 301.34320313 231.6015625 300.97265625 C229 300 229 300 227 299 C219.84651358 298.18891697 215.15348963 299.35348762 209 303 C209 303.99 209 304.98 209 306 C210.05960937 306.02578125 211.11921875 306.0515625 212.2109375 306.078125 C213.59900001 306.1343978 214.98701925 306.19174533 216.375 306.25 C217.07367188 306.26417969 217.77234375 306.27835937 218.4921875 306.29296875 C220.5234375 306.390625 220.5234375 306.390625 224 307 C225.3515625 308.921875 225.3515625 308.921875 226 311 C228.57603912 313.57603912 229.79249282 313.3558611 233.375 313.4375 C237.94141257 313.44922397 237.94141257 313.44922397 241.4375 310.625 C241.953125 309.75875 242.46875 308.8925 243 308 C246.2392607 305.82373394 248.56364352 305.86944315 252.375 306.3125 C253.34308594 306.41820312 254.31117188 306.52390625 255.30859375 306.6328125 C257.3625638 306.91303483 259.40475898 307.2809518 261.4375 307.6875 C264.5211555 308.06355555 265.4002298 307.63834575 268 306 C269.93936525 303.87459055 269.93936525 303.87459055 271.6875 301.4375 C272.59048828 300.22900391 272.59048828 300.22900391 273.51171875 298.99609375 C274.00285156 298.33738281 274.49398437 297.67867188 275 297 C275.33 296.67 275.66 296.34 276 296 C278.22984603 296.11223066 280.45892055 296.23993458 282.6875 296.375 C287.67177312 296.540516 287.67177312 296.540516 292.0859375 294.62109375 C293.5591089 292.81665364 294.79731216 290.99338226 296 289 C300.5443605 283.38637821 306.40676797 281.47114757 313 279 C312.505 277.515 312.505 277.515 312 276 C309.06122438 274.65699969 309.06122438 274.65699969 305.5 273.5625 C291.16729215 268.73383372 291.16729215 268.73383372 286.8125 265.25 C282.37243713 262.18788767 278.71805783 264.02534819 274.5625 266.5625 Z M-100 267 C-102.28911251 269.28911251 -102.33177002 269.96685734 -102.7109375 273.0703125 C-102.82179688 273.885 -102.93265625 274.6996875 -103.046875 275.5390625 C-103.26257523 277.23898578 -103.47365103 278.9395034 -103.6796875 280.640625 C-104.39234266 285.80737488 -105.67598476 289.67318197 -108.15527344 294.24975586 C-109.32316086 296.66957809 -109.50202921 298.36662859 -109 301 C-107.80054209 303.15153306 -107.80054209 303.15153306 -106.125 305.0625 C-100.96423659 311.35763411 -100.96423659 311.35763411 -101.05078125 315.33203125 C-101.13714844 316.15058594 -101.22351563 316.96914063 -101.3125 317.8125 C-101.39471042 320.92279415 -101.39704002 322.45165554 -99.5546875 324.99609375 C-98.30897362 326.16623085 -97.04158457 327.31370801 -95.75390625 328.4375 C-92.46743235 331.36531639 -91.13288238 334.35083472 -90.78125 338.71484375 C-90.67977538 340.64539846 -90.61760526 342.57856557 -90.6015625 344.51171875 C-90.21960484 347.15648436 -90.21960484 347.15648436 -87.96484375 348.73828125 C-83.69300759 350.55620362 -79.34845107 351.14396165 -74.79492188 351.81640625 C-70.8273255 352.46463326 -67.81943727 353.01428822 -65 356 C-64.57797696 360.47344425 -65.14245601 364.60508704 -66 369 C-60.04353407 372.97097729 -52.67203889 370.93622978 -45.96875 369.6328125 C-44.99421875 369.31957031 -44.99421875 369.31957031 -44 369 C-43.67 368.34 -43.34 367.68 -43 367 C-44.051875 366.29875 -45.10375 365.5975 -46.1875 364.875 C-51.14817756 361.20956152 -55.08916018 356.69702836 -59.07885742 352.02685547 C-63.93613239 346.53131608 -69.48076439 342.71995223 -77 342.25 C-78.1446875 342.16492188 -78.1446875 342.16492188 -79.3125 342.078125 C-79.869375 342.05234375 -80.42625 342.0265625 -81 342 C-81 341.34 -81 340.68 -81 340 C-78.03 339.01 -78.03 339.01 -75 338 C-77.94450958 329.43415395 -85.3182002 324.24950627 -93 320 C-92.71125 319.175 -92.4225 318.35 -92.125 317.5 C-91.9387163 312.28405638 -94.76432479 309.84185234 -98 306 C-98.66 305.01 -99.32 304.02 -100 303 C-100.66 303 -101.32 303 -102 303 C-101.67 302.01 -101.34 301.02 -101 300 C-100.01 299.505 -100.01 299.505 -99 299 C-99.33 293.06 -99.66 287.12 -100 281 C-95.98609707 283.67593529 -95.80104549 286.67077556 -94.8125 291.125 C-94.63525391 291.87910156 -94.45800781 292.63320313 -94.27539062 293.41015625 C-93.83962818 295.27097967 -93.41841214 297.13519867 -93 299 C-92.34 299 -91.68 299 -91 299 C-90.67 297.35 -90.34 295.7 -90 294 C-89.34 294 -88.68 294 -88 294 C-87.89042969 295.21816406 -87.78085938 296.43632812 -87.66796875 297.69140625 C-87.50840885 299.31516288 -87.34821907 300.9388577 -87.1875 302.5625 C-87.11724609 303.36236328 -87.04699219 304.16222656 -86.97460938 304.98632812 C-86.44139161 310.21186226 -85.31324794 314.27843913 -83 319 C-82.731875 318.46375 -82.46375 317.9275 -82.1875 317.375 C-81.795625 316.59125 -81.40375 315.8075 -81 315 C-80.525625 313.948125 -80.05125 312.89625 -79.5625 311.8125 C-78 309 -78 309 -75 308 C-75.03480469 309.14597656 -75.06960937 310.29195313 -75.10546875 311.47265625 C-75.13362703 313.00258939 -75.16092499 314.53253854 -75.1875 316.0625 C-75.21263672 316.81466797 -75.23777344 317.56683594 -75.26367188 318.34179688 C-75.35057603 325.03341643 -73.74710708 329.37933937 -70 335 C-69.34 335 -68.68 335 -68 335 C-67.34 336.32 -66.68 337.64 -66 339 C-65.01 339 -64.02 339 -63 339 C-61.68 336.69 -60.36 334.38 -59 332 C-58.01 332.495 -58.01 332.495 -57 333 C-57.05220703 333.85271484 -57.05220703 333.85271484 -57.10546875 334.72265625 C-57.45797599 344.77750568 -53.07169175 351.26871251 -47 359 C-43.27445376 362.72554624 -40.00985321 363.82121101 -35 365 C-36.28585683 360.99955654 -38.69994931 359.96952952 -42.2578125 358.04296875 C-47.2214061 355.07149007 -48.92045196 350.4239957 -50.41015625 345.109375 C-51.28071428 340.52020816 -51.52746932 335.93254283 -51.7097168 331.27026367 C-51.53769692 327.84393818 -51.53769692 327.84393818 -53 325 C-54.85287502 324.92773498 -56.70833878 324.9161878 -58.5625 324.9375 C-59.57441406 324.94652344 -60.58632812 324.95554687 -61.62890625 324.96484375 C-62.41136719 324.97644531 -63.19382813 324.98804688 -64 325 C-64.12117188 324.2265625 -64.24234375 323.453125 -64.3671875 322.65625 C-65.39812493 312.03569272 -65.39812493 312.03569272 -70 303 C-72.43252661 302.53837573 -72.43252661 302.53837573 -75.125 302.375 C-76.03507812 302.30023438 -76.94515625 302.22546875 -77.8828125 302.1484375 C-78.58148438 302.09945312 -79.28015625 302.05046875 -80 302 C-79.97679687 301.19175781 -79.95359375 300.38351562 -79.9296875 299.55078125 C-79.91164063 298.48214844 -79.89359375 297.41351563 -79.875 296.3125 C-79.85179687 295.25675781 -79.82859375 294.20101563 -79.8046875 293.11328125 C-80.00665179 289.89397039 -80.40108528 287.79934601 -82 285 C-83.93229322 284.05270407 -83.93229322 284.05270407 -86.1875 283.5625 C-91.84226308 281.41222601 -93.59478574 276.95188973 -95.9675293 271.77563477 C-96.66569777 270.19271652 -97.3358099 268.59747329 -98 267 C-98.66 267 -99.32 267 -100 267 Z M7 267 C6.67 267.66 6.34 268.32 6 269 C6.99 268.67 7.98 268.34 9 268 C8.34 267.67 7.68 267.34 7 267 Z M48 267 C49.2684375 268.3921875 49.2684375 268.3921875 50.5625 269.8125 C58.72773954 279.46408338 65.6136913 290.89155386 65 304 C61.88449093 302.44224547 61.61405241 299.81607912 60.375 296.625 C56.22415489 286.53163389 50.50980619 276.42990125 40 272 C34.34570876 270.77458193 29.92771301 272.03892377 24.921875 274.734375 C19.86455649 278.06480427 16.71423633 281.52356725 13.6875 286.75 C13.32849609 287.35199219 12.96949219 287.95398438 12.59960938 288.57421875 C11.7244967 290.04440804 10.86102469 291.52151591 10 293 C8.37295248 289.74590495 9.92160095 287.02776905 10.96484375 283.6796875 C12.25620277 280.33677321 13.97328133 277.5281378 16.01171875 274.59375 C17.17566662 273.02926104 17.17566662 273.02926104 17 271 C7.74053127 272.97009973 1.28248497 278.07493 -4.58984375 285.36328125 C-6 287 -6 287 -8 288 C-4.78394644 280.11339629 -0.69832333 275.22440033 6 270 C3.05226703 268.63208554 3.05226703 268.63208554 0.58203125 270.15234375 C-15.91027648 280.78278752 -26.39605813 295.06678331 -30.7421875 314.28125 C-33.55187485 330.13866355 -33.31769953 348.21074114 -24 362 C-18.14676179 369.31042513 -10.45191944 374.99645921 -2 379 C-0.515 378.505 -0.515 378.505 1 378 C0.79503906 377.43152344 0.59007812 376.86304688 0.37890625 376.27734375 C-1.29092669 371.4915546 -2.46376936 367.04056799 -3 362 C-0.09841725 364.54325476 1.43194235 367.43550039 3.25 370.8125 C7.53683836 378.23823675 11.94106458 383.12751331 20.34765625 385.52734375 C30.80927443 387.39163801 39.401226 386.52315963 48.1484375 380.52734375 C54.52530628 375.5135603 58.04638938 369.25457047 59.8125 361.375 C59.9053125 360.199375 59.9053125 360.199375 60 359 C61.485 359.495 61.485 359.495 63 360 C62.69683422 366.54838078 61.31252431 371.35644006 58 377 C57.4225 377.99 56.845 378.98 56.25 380 C55.8375 380.66 55.425 381.32 55 382 C64.6117375 379.82960766 70.40392944 374.23395695 75.9296875 366.19140625 C77.75332254 363.18546237 79.42821978 360.14356043 81 357 C81.66 357 82.32 357 83 357 C82.01805166 362.30252103 80.92678873 366.40076056 78 371 C78.33 371.66 78.66 372.32 79 373 C91.73119372 359.86522377 96.15800199 342.81461262 96.25 324.875 C96.270625 323.89273438 96.29125 322.91046875 96.3125 321.8984375 C96.39810754 305.63300556 90.14625167 290.75232859 79.0546875 278.92578125 C71.64356115 272.00973015 61.82837671 266.9289363 51.5625 266.875 C50.386875 266.91625 49.21125 266.9575 48 267 Z M128 291 C125.58982203 294.86783052 123.69617123 298.77488032 122 303 C121.319375 304.670625 121.319375 304.670625 120.625 306.375 C119.61664313 312.22346985 119.85224252 318.08149222 120 324 C122.46917451 325.23458726 124.36975477 325.21382967 127.125 325.375 C132.27147695 325.78861672 136.27881095 326.95118211 141 329 C141.4125 328.54109375 141.825 328.0821875 142.25 327.609375 C148.43450506 321.03833838 154.2279852 317.5619354 163.34375 316.95703125 C168.93316044 317.04744818 174.45245925 317.96211303 179.63671875 320.07421875 C182.04252943 321.18237375 182.04252943 321.18237375 185 321 C184.80664062 320.35933594 184.61328125 319.71867187 184.4140625 319.05859375 C182.9059252 314.04889015 181.42282214 309.03460143 180 304 C175.89041233 305.45044271 172.56741255 307.51110752 169 310 C169.309375 308.741875 169.61875 307.48375 169.9375 306.1875 C171.14052452 300.82934823 171.61151096 295.4695168 172 290 C173.98 290.33 175.96 290.66 178 291 C175.48900063 284.86657531 169.41299149 280.69808936 163.62109375 277.81640625 C148.6028686 272.35760789 137.43575138 279.32751634 128 291 Z M-71 291 C-71.33 292.65 -71.66 294.3 -72 296 C-71.31292969 296.09796875 -70.62585938 296.1959375 -69.91796875 296.296875 C-68.56638672 296.52117187 -68.56638672 296.52117187 -67.1875 296.75 C-66.29417969 296.88921875 -65.40085937 297.0284375 -64.48046875 297.171875 C-61.33264755 298.22280113 -60.54148159 299.07118497 -59 302 C-58.26953125 305.453125 -58.26953125 305.453125 -57.8125 309.25 C-57.65394531 310.51328125 -57.49539062 311.7765625 -57.33203125 313.078125 C-57.22246094 314.04234375 -57.11289063 315.0065625 -57 316 C-56.31292969 316.13277344 -55.62585938 316.26554687 -54.91796875 316.40234375 C-54.01691406 316.57894531 -53.11585938 316.75554687 -52.1875 316.9375 C-51.29417969 317.11152344 -50.40085937 317.28554688 -49.48046875 317.46484375 C-47 318 -47 318 -44 319 C-44.12568359 317.42412109 -44.12568359 317.42412109 -44.25390625 315.81640625 C-44.80812342 308.35667863 -45.04392275 301.43794957 -44 294 C-45.630933 292.369067 -47.51925539 292.79525816 -49.76953125 292.71875 C-50.74083984 292.68136719 -51.71214844 292.64398438 -52.71289062 292.60546875 C-53.73576172 292.57066406 -54.75863281 292.53585937 -55.8125 292.5 C-57.81914677 292.43093759 -59.82567003 292.35816272 -61.83203125 292.28125 C-62.72639893 292.25095703 -63.6207666 292.22066406 -64.54223633 292.18945312 C-66.81148687 292.01453126 -68.81775443 291.62776492 -71 291 Z M211 313 C211.14024219 315.47960136 211.2869185 317.95852402 211.4375 320.4375 C211.47681641 321.14455078 211.51613281 321.85160156 211.55664062 322.58007812 C211.47624438 326.08690419 211.47624438 326.08690419 213 329 C222.03264702 329.58429636 230.77332611 330.11333695 239.0546875 325.97265625 C241.02512574 324.98743713 242.85180726 324.45757469 245 324 C242.55226831 329.20142984 238.59788619 331.82188865 234 335 C238.13809698 339.7964306 244.47144022 340.63877717 250.5 341.5 C257.11895139 340.55443552 262.79068006 337.08362781 268 333 C267.51421457 336.12290635 267.0013988 338.99580359 266 342 C263.9375 343.1875 263.9375 343.1875 262 344 C262 344.33 262 344.66 262 345 C263.61068359 345.05607422 263.61068359 345.05607422 265.25390625 345.11328125 C266.6901362 345.17899112 268.12633262 345.24543668 269.5625 345.3125 C270.26697266 345.33505859 270.97144531 345.35761719 271.69726562 345.38085938 C276.75541805 345.63726342 280.49291611 346.65074778 285 349 C285.33 349.66 285.66 350.32 286 351 C284.72125 350.835 283.4425 350.67 282.125 350.5 C278.63636157 350.12338562 275.25124188 349.98832142 271.75 350.109375 C261.92246631 350.43069408 254.91187084 349.63136595 246 345 C243.01210917 343.68090153 241.28980233 343 238 343 C238.495 348.445 238.495 348.445 239 354 C238.01 354 237.02 354 236 354 C235.60167969 352.9171875 235.60167969 352.9171875 235.1953125 351.8125 C231.86105511 343.96718849 226.89461361 337.49967407 219 334 C216.9043458 333.28887321 216.9043458 333.28887321 215 333 C214.67 333.33 214.34 333.66 214 334 C214.43945075 338.39450749 215.05572225 342.68330172 216 347 C212.92837334 345.90299048 211.99237152 344.98816271 210.1875 342.1875 C207.66027314 338.50496944 205.09678095 335.84944608 201 334 C198.33268307 333.52811987 195.70080741 333.26055507 193 333 C193.39776683 335.73314025 193.81732387 338.45985615 194.25 341.1875 C194.41435547 342.34088867 194.41435547 342.34088867 194.58203125 343.51757812 C195.37480108 348.37850892 196.40178809 351.40855165 200 355 C203.63811414 357.42540943 204.69116326 357.5483974 209 357 C210.66498362 356.16201319 212.3096145 355.28295438 213.9375 354.375 C217.36766085 352.58312493 218.61137855 351.97272832 222.5625 352.25 C225.65948716 353.82664801 227.89189677 355.44400736 230.5625 357.625 C233.24517664 359.79108013 234.68062259 360.92178512 238.0625 361.75 C240.97739215 361.00577222 242.48645577 360.1043979 244.9375 358.4375 C247.96636107 356.40672077 248.80988475 356.00327785 252.625 355.9375 C256 357 256 357 259 359.125 C261.88737523 361.2981244 261.88737523 361.2981244 265.375 361 C268.39353649 360.16730028 269.88985402 359.49968292 272.4375 357.9375 C278.60055643 354.54353055 286.19531413 355.7027079 293 356 C291.59476185 351.60372422 289.49709148 349.17562001 286.1875 346 C285.33542969 345.175 284.48335938 344.35 283.60546875 343.5 C281.8946491 341.85843392 280.168406 340.23276305 278.42578125 338.625 C276.29853547 336.32305287 275.45977175 334.95130735 274.20703125 332.2109375 C273.47871094 331.15132813 272.75039063 330.09171875 272 329 C268.93908213 328.53575563 266.70717516 328.4400027 263.6875 328.625 C255.80760929 328.71251765 255.80760929 328.71251765 252.64453125 325.921875 C251.5786032 324.27107907 250.54365143 322.59969813 249.546875 320.90625 C248.15793997 318.76939218 248.15793997 318.76939218 245.703125 318.59375 C242.2709796 318.98724438 239.27175593 319.90941469 236 321 C231.48541874 321.89553043 228.25153654 321.81971984 224.328125 319.25 C222.60522221 317.82274325 220.9139232 316.35619075 219.26171875 314.84765625 C216.39077511 312.50230851 214.448995 311.2755025 211 313 Z M147 331 C147.33 332.32 147.66 333.64 148 335 C148.66 335 149.32 335 150 335 C150.28746094 335.57621094 150.57492187 336.15242188 150.87109375 336.74609375 C151.58823673 338.17789825 152.30916007 339.60782036 153.03515625 341.03515625 C153.37417969 341.70417969 153.71320313 342.37320312 154.0625 343.0625 C154.40410156 343.73410156 154.74570312 344.40570313 155.09765625 345.09765625 C156.67582224 348.42478542 157.12079833 351.03466265 157.09765625 354.66796875 C157.09443359 355.56064453 157.09121094 356.45332031 157.08789062 357.37304688 C157.07951172 358.30181641 157.07113281 359.23058594 157.0625 360.1875 C157.05798828 361.12787109 157.05347656 362.06824219 157.04882812 363.03710938 C157.03704626 365.35813712 157.02059558 367.67903644 157 370 C163.82737453 372.27579151 171.00789713 371.88973747 177.5 368.8125 C183.07184382 365.6426209 185.94021987 362.0495223 188 356 C188.9281844 347.76506163 188.30562935 340.19847407 184 333 C179.04851565 327.45905323 172.85118425 325.66744481 165.671875 324.6796875 C158.50501384 324.30380317 152.85895152 327.09403232 147 331 Z M-42 329 C-42.08138426 331.87557703 -42.14067851 334.74882262 -42.1875 337.625 C-42.21263672 338.43324219 -42.23777344 339.24148438 -42.26367188 340.07421875 C-42.3251972 345.11929526 -41.92273029 348.68062704 -39 353 C-38.01 353.33 -37.02 353.66 -36 354 C-36.28875 352.80375 -36.5775 351.6075 -36.875 350.375 C-38.10482588 344.94471249 -38.77012098 339.46515942 -39.4375 333.94140625 C-39.73561479 330.88991561 -39.73561479 330.88991561 -42 329 Z M109.77734375 339.0859375 C102.59005693 346.74342065 98.64245298 355.07642628 98.78125 365.625 C99.31911006 371.46462346 101.67024438 377.01206719 106 381 C112.96999807 384.88566053 120.35699529 384.39052121 128 383 C135.7523287 380.76014032 142.92166979 374.37914692 147.48828125 367.8828125 C150.73696772 361.81072216 151.8338219 355.78079034 149.83984375 349.04296875 C146.56571132 341.07845126 140.64150509 336.58490362 133 333 C122.86418584 329.389984 117.29995408 332.02605364 109.77734375 339.0859375 Z M-102 333 C-104.56170622 338.23479097 -106.18255621 343.10450815 -106 349 C-104.51978473 353.2069276 -102.91777001 355.8234611 -99 358 C-93.54787597 359.95453503 -88.09660496 361.27040204 -82.5625 359 C-82.046875 358.67 -81.53125 358.34 -81 358 C-83.12130675 355.87869325 -87.36316576 356.1175591 -90.23828125 355.6953125 C-93.20010542 354.94961985 -94.76717058 354.05562074 -97 352 C-99.38871515 347.2225697 -99.13645699 342.60376151 -98.97265625 337.390625 C-98.82606406 334.98374302 -98.82606406 334.98374302 -100 333 C-100.66 333 -101.32 333 -102 333 Z " fill="#FFFFFF" transform="translate(220,111)"/>
<path d="M0 0 C3.79049707 1.42749981 7.27122456 3.16236542 10.8125 5.125 C12.27623047 5.93324219 12.27623047 5.93324219 13.76953125 6.7578125 C14.87361328 7.37269531 14.87361328 7.37269531 16 8 C15.625 9.9375 15.625 9.9375 15 12 C11.77359912 13.61320044 8.4885244 13.58810373 5 13 C1.54439151 10.50019811 0.25483535 8.92832878 -0.875 4.8125 C-1 2 -1 2 0 0 Z " fill="#FFFFFF" transform="translate(344,448)"/>
</svg>
